<?xml version="1.0" encoding="utf-8"?>
<!-- Generator: Adobe Illustrator 16.0.0, SVG Export Plug-In . SVG Version: 6.00 Build 0)  -->
<!DOCTYPE svg PUBLIC "-//W3C//DTD SVG 1.1//EN" "http://www.w3.org/Graphics/SVG/1.1/DTD/svg11.dtd">
<svg version="1.1" id="Capa_1" xmlns="http://www.w3.org/2000/svg" xmlns:xlink="http://www.w3.org/1999/xlink" x="0px" y="0px"
	 width="1064px" height="40.391px" viewBox="0 0 1064 40.391" enable-background="new 0 0 1064 40.391" xml:space="preserve">
<path fill="#1E1E1C" d="M1064,40.391H0V0h1064V40.391z M2,38.391h1060V2H2V38.391z"/>
<rect x="38.391" y="1" fill="#1E1E1C" width="2" height="38.391"/>
<g>
	<path fill="#010202" d="M13.017,28.935c-0.244,0-0.488-0.088-0.68-0.267c-0.405-0.376-0.429-1.009-0.053-1.413l14.358-15.479
		c0.375-0.405,1.009-0.428,1.413-0.053c0.405,0.375,0.429,1.008,0.053,1.413L13.75,28.614
		C13.553,28.827,13.285,28.935,13.017,28.935z"/>
	<path fill="#010202" d="M27.935,28.374c-0.244,0-0.488-0.088-0.68-0.267L11.776,13.75c-0.405-0.376-0.429-1.009-0.053-1.414
		c0.376-0.405,1.009-0.428,1.414-0.053l15.479,14.357c0.405,0.376,0.429,1.009,0.053,1.413
		C28.471,28.267,28.203,28.374,27.935,28.374z"/>
</g>
<g>
	<path fill="#010202" d="M67.12,25.535v-4.71h-4.86v4.71H60.7v-10.5h1.56v4.245h4.86v-4.245h1.56v10.5H67.12z"/>
	<path fill="#010202" d="M81.295,20.285c0,0.8-0.104,1.53-0.314,2.19s-0.508,1.229-0.893,1.709c-0.385,0.48-0.853,0.854-1.402,1.118
		c-0.551,0.265-1.165,0.397-1.846,0.397c-0.68,0-1.292-0.133-1.837-0.397s-1.011-0.638-1.396-1.118
		c-0.385-0.479-0.683-1.049-0.893-1.709s-0.314-1.39-0.314-2.19c0-0.79,0.104-1.518,0.314-2.183s0.508-1.237,0.893-1.717
		s0.851-0.853,1.396-1.118c0.545-0.265,1.157-0.397,1.837-0.397c0.681,0,1.295,0.133,1.846,0.397
		c0.55,0.265,1.018,0.638,1.402,1.118s0.683,1.052,0.893,1.717S81.295,19.495,81.295,20.285z M79.69,20.285
		c0-1.18-0.243-2.115-0.728-2.805c-0.485-0.69-1.192-1.035-2.123-1.035c-0.92,0-1.622,0.345-2.107,1.035
		c-0.484,0.69-0.728,1.625-0.728,2.805c0,1.18,0.243,2.115,0.728,2.806c0.485,0.689,1.188,1.034,2.107,1.034
		c0.931,0,1.638-0.345,2.123-1.034C79.447,22.4,79.69,21.465,79.69,20.285z"/>
	<path fill="#010202" d="M97.585,22.521c0,0.47-0.078,0.899-0.232,1.289c-0.155,0.391-0.391,0.726-0.705,1.006
		c-0.315,0.279-0.718,0.497-1.208,0.652c-0.49,0.154-1.07,0.232-1.74,0.232c-0.77,0-1.473-0.152-2.107-0.457
		c-0.635-0.306-1.177-0.718-1.627-1.238l1.125-1.095c0.35,0.38,0.767,0.683,1.252,0.907s0.978,0.338,1.478,0.338
		c1.45,0,2.175-0.51,2.175-1.53c0-0.2-0.04-0.38-0.119-0.54c-0.081-0.16-0.216-0.307-0.405-0.442
		c-0.19-0.135-0.436-0.262-0.735-0.382s-0.67-0.245-1.109-0.375c-0.561-0.16-1.046-0.325-1.455-0.495
		c-0.41-0.17-0.75-0.368-1.021-0.592c-0.27-0.225-0.473-0.498-0.607-0.818c-0.135-0.32-0.202-0.715-0.202-1.185
		c0-0.45,0.09-0.857,0.27-1.222c0.181-0.365,0.425-0.672,0.735-0.922c0.31-0.25,0.677-0.443,1.103-0.578
		c0.425-0.135,0.877-0.203,1.357-0.203c0.72,0,1.354,0.125,1.905,0.375c0.55,0.25,1.06,0.6,1.529,1.05L96.13,17.42
		c-0.33-0.34-0.69-0.592-1.08-0.757c-0.391-0.165-0.846-0.248-1.365-0.248c-0.62,0-1.067,0.13-1.343,0.39
		c-0.274,0.26-0.412,0.565-0.412,0.915c0,0.18,0.035,0.343,0.104,0.487c0.07,0.145,0.19,0.28,0.36,0.405S92.8,18.86,93.1,18.98
		c0.3,0.12,0.675,0.245,1.125,0.375c0.52,0.16,0.987,0.325,1.402,0.495c0.415,0.17,0.768,0.375,1.058,0.615
		c0.29,0.24,0.513,0.525,0.668,0.855C97.507,21.65,97.585,22.05,97.585,22.521z"/>
	<path fill="#010202" d="M101.425,25.535v-10.5h6.75v1.545h-5.19v2.565H106v1.545h-3.016v3.3h5.415v1.545H101.425z"/>
	<path fill="#010202" d="M118.614,25.535l-4.185-6.585c-0.13-0.2-0.272-0.43-0.428-0.69s-0.272-0.46-0.353-0.6
		c0,0.1,0,0.255,0,0.465s0.003,0.435,0.008,0.675c0.005,0.24,0.007,0.478,0.007,0.712s0,0.427,0,0.578v5.445h-1.529v-10.5h1.604
		l3.99,6.405c0.07,0.11,0.147,0.235,0.232,0.375c0.085,0.14,0.167,0.282,0.248,0.428c0.079,0.145,0.154,0.277,0.225,0.396
		c0.069,0.121,0.125,0.216,0.165,0.285c0-0.1,0-0.257,0-0.473c0-0.215-0.003-0.444-0.008-0.689s-0.007-0.487-0.007-0.728
		s0-0.435,0-0.585v-5.415h1.529v10.5H118.614z"/>
	<path fill="#010202" d="M128.289,16.58v8.955h-1.561V16.58h-3.06v-1.545h7.68v1.545H128.289z"/>
	<path fill="#010202" d="M134.994,25.535v-10.5h1.56v10.5H134.994z"/>
	<path fill="#010202" d="M148.704,25.535v-5.55c0-0.16,0-0.33,0-0.51s0.002-0.357,0.008-0.532c0.005-0.175,0.01-0.333,0.015-0.473
		s0.008-0.25,0.008-0.33c-0.061,0.15-0.155,0.388-0.285,0.712c-0.13,0.325-0.26,0.638-0.39,0.938l-2.551,5.91l-2.52-5.91
		c-0.13-0.3-0.261-0.612-0.39-0.938c-0.131-0.325-0.226-0.562-0.285-0.712c0,0.08,0.002,0.19,0.007,0.33s0.01,0.297,0.016,0.473
		c0.005,0.175,0.007,0.352,0.007,0.532s0,0.35,0,0.51v5.55h-1.484v-10.5h1.62l2.354,5.595c0.13,0.3,0.265,0.62,0.405,0.96
		c0.14,0.34,0.245,0.62,0.314,0.84c0.08-0.221,0.186-0.498,0.315-0.833s0.26-0.657,0.39-0.967l2.311-5.595h1.694v10.5H148.704z"/>
	<path fill="#010202" d="M154.988,27.425h-1.064l0.225-3.975h1.965L154.988,27.425z"/>
	<path fill="#010202" d="M165.294,25.535v-10.5h1.56v8.955h5.235v1.545H165.294z"/>
	<path fill="#010202" d="M182.634,25.535l-0.885-2.49h-4.2l-0.87,2.49h-1.635l3.78-10.5h1.665l3.824,10.5H182.634z M180.429,19.22
		c-0.06-0.19-0.13-0.4-0.21-0.63s-0.157-0.46-0.232-0.69s-0.146-0.443-0.21-0.638c-0.065-0.195-0.112-0.347-0.143-0.458
		c-0.03,0.11-0.075,0.263-0.135,0.458c-0.061,0.195-0.125,0.405-0.195,0.63s-0.143,0.458-0.218,0.698
		c-0.074,0.24-0.147,0.455-0.217,0.645l-0.84,2.4h3.239L180.429,19.22z"/>
	<path fill="#010202" d="M197.363,16.58v8.955h-1.561V16.58h-3.06v-1.545h7.68v1.545H197.363z"/>
	<path fill="#010202" d="M203.993,25.535v-10.5h6.75v1.545h-5.19v2.565h3.016v1.545h-3.016v3.3h5.415v1.545H203.993z"/>
	<path fill="#010202" d="M219.353,25.535h-1.665l-3.645-10.5h1.71l2.19,6.69c0.05,0.149,0.104,0.317,0.164,0.502
		c0.061,0.186,0.118,0.367,0.173,0.548c0.055,0.18,0.105,0.347,0.15,0.503c0.045,0.154,0.077,0.277,0.098,0.367
		c0.02-0.09,0.052-0.213,0.097-0.367c0.045-0.156,0.096-0.323,0.15-0.503c0.055-0.181,0.112-0.365,0.173-0.556
		c0.06-0.189,0.114-0.359,0.165-0.51l2.159-6.675h1.681L219.353,25.535z"/>
	<path fill="#010202" d="M233.438,25.535l-0.885-2.49h-4.2l-0.87,2.49h-1.635l3.78-10.5h1.665l3.824,10.5H233.438z M231.232,19.22
		c-0.06-0.19-0.13-0.4-0.21-0.63s-0.157-0.46-0.232-0.69s-0.146-0.443-0.21-0.638c-0.065-0.195-0.112-0.347-0.143-0.458
		c-0.03,0.11-0.075,0.263-0.135,0.458c-0.061,0.195-0.125,0.405-0.195,0.63s-0.143,0.458-0.218,0.698
		c-0.074,0.24-0.147,0.455-0.217,0.645l-0.84,2.4h3.239L231.232,19.22z"/>
	<path fill="#010202" d="M251.138,25.535l-0.885-2.49h-4.2l-0.87,2.49h-1.635l3.78-10.5h1.665l3.824,10.5H251.138z M248.933,19.22
		c-0.06-0.19-0.13-0.4-0.21-0.63s-0.157-0.46-0.232-0.69s-0.146-0.443-0.21-0.638c-0.065-0.195-0.112-0.347-0.143-0.458
		c-0.03,0.11-0.075,0.263-0.135,0.458c-0.061,0.195-0.125,0.405-0.195,0.63s-0.143,0.458-0.218,0.698
		c-0.074,0.24-0.147,0.455-0.217,0.645l-0.84,2.4h3.239L248.933,19.22z"/>
	<path fill="#010202" d="M264.353,20.285c0,0.93-0.138,1.726-0.412,2.385c-0.275,0.66-0.647,1.202-1.117,1.628
		c-0.471,0.425-1.013,0.737-1.628,0.938s-1.268,0.3-1.957,0.3h-2.865v-10.5h2.865c0.699,0,1.362,0.1,1.987,0.3
		c0.625,0.2,1.167,0.513,1.627,0.938c0.46,0.425,0.825,0.968,1.096,1.628C264.218,18.56,264.353,19.355,264.353,20.285z
		 M262.748,20.285c0-0.548-0.065-1.048-0.196-1.501c-0.13-0.453-0.338-0.844-0.624-1.172s-0.652-0.583-1.099-0.762
		s-0.98-0.269-1.603-0.269h-1.294v7.41h1.294c0.622,0,1.156-0.09,1.603-0.269c0.446-0.18,0.812-0.434,1.099-0.762
		c0.286-0.329,0.494-0.721,0.624-1.174C262.683,21.333,262.748,20.833,262.748,20.285z"/>
	<path fill="#010202" d="M276.022,18.17c0,0.85-0.205,1.53-0.614,2.04c-0.41,0.51-0.976,0.855-1.695,1.035l2.145,4.29h-1.811
		l-2.08-4.155h-2.364v4.155h-1.56v-10.5h4.604c0.46,0,0.893,0.062,1.298,0.188s0.763,0.315,1.072,0.57
		c0.31,0.255,0.555,0.58,0.735,0.975C275.933,17.163,276.022,17.63,276.022,18.17z M274.433,18.215c0-0.55-0.162-0.97-0.486-1.26
		c-0.323-0.29-0.755-0.435-1.293-0.435h-3.051v3.375h3.051c0.528,0,0.957-0.137,1.286-0.413
		C274.269,19.208,274.433,18.785,274.433,18.215z"/>
	<path fill="#010202" d="M279.938,25.535v-10.5h6.75v1.545h-5.19v2.565h3.016v1.545h-3.016v3.3h5.415v1.545H279.938z"/>
	<path fill="#010202" d="M296.76,25.153c-0.595,0.344-1.282,0.527-2.062,0.547l-0.09,0.51c0.09-0.04,0.189-0.072,0.3-0.098
		s0.25-0.037,0.42-0.037c0.13,0,0.258,0.02,0.383,0.061c0.125,0.039,0.24,0.102,0.345,0.188c0.105,0.084,0.189,0.191,0.255,0.322
		c0.065,0.129,0.098,0.289,0.098,0.479c0,0.24-0.048,0.442-0.143,0.607s-0.225,0.3-0.39,0.405s-0.36,0.18-0.585,0.225
		c-0.226,0.045-0.463,0.068-0.713,0.068c-0.36,0-0.689-0.048-0.99-0.143c-0.3-0.096-0.585-0.229-0.854-0.398l0.33-0.494
		c0.199,0.109,0.412,0.197,0.638,0.262c0.225,0.065,0.452,0.098,0.682,0.098c0.33,0,0.572-0.055,0.728-0.164
		c0.155-0.111,0.232-0.251,0.232-0.421c0-0.149-0.045-0.268-0.135-0.353s-0.205-0.127-0.345-0.127c-0.141,0-0.255,0.02-0.345,0.06
		c-0.091,0.04-0.176,0.095-0.255,0.165l-0.54-0.21l0.21-1.05c-0.58-0.08-1.103-0.27-1.568-0.57c-0.465-0.3-0.862-0.682-1.192-1.147
		c-0.33-0.465-0.582-1.007-0.757-1.628c-0.176-0.619-0.263-1.294-0.263-2.024c0-0.79,0.104-1.518,0.314-2.183
		s0.508-1.237,0.893-1.717s0.851-0.853,1.396-1.118c0.545-0.265,1.157-0.397,1.837-0.397c0.86,0,1.58,0.167,2.16,0.502
		c0.58,0.335,1.05,0.823,1.41,1.462l-1.395,0.87c-0.271-0.43-0.565-0.748-0.886-0.953c-0.319-0.205-0.75-0.307-1.29-0.307
		c-0.92,0-1.619,0.345-2.1,1.035c-0.479,0.69-0.72,1.625-0.72,2.805c0,1.18,0.24,2.115,0.72,2.806c0.48,0.689,1.18,1.034,2.1,1.034
		c0.55,0,1.006-0.11,1.365-0.33c0.36-0.22,0.675-0.545,0.945-0.975l1.305,0.87C297.837,24.32,297.354,24.808,296.76,25.153z"/>
	<path fill="#010202" d="M308.887,25.535l-0.885-2.49h-4.2l-0.87,2.49h-1.635l3.78-10.5h1.665l3.824,10.5H308.887z M306.682,19.22
		c-0.06-0.19-0.13-0.4-0.21-0.63s-0.157-0.46-0.232-0.69s-0.146-0.443-0.21-0.638c-0.065-0.195-0.112-0.347-0.143-0.458
		c-0.03,0.11-0.075,0.263-0.135,0.458c-0.061,0.195-0.125,0.405-0.195,0.63s-0.143,0.458-0.218,0.698
		c-0.074,0.24-0.147,0.455-0.217,0.645l-0.84,2.4h3.239L306.682,19.22z"/>
	<path fill="#010202" d="M326.137,25.535l-4.185-6.585c-0.13-0.2-0.272-0.43-0.428-0.69s-0.272-0.46-0.353-0.6
		c0,0.1,0,0.255,0,0.465s0.003,0.435,0.008,0.675c0.005,0.24,0.007,0.478,0.007,0.712s0,0.427,0,0.578v5.445h-1.529v-10.5h1.604
		l3.99,6.405c0.07,0.11,0.147,0.235,0.232,0.375c0.085,0.14,0.167,0.282,0.248,0.428c0.079,0.145,0.154,0.277,0.225,0.396
		c0.069,0.121,0.125,0.216,0.165,0.285c0-0.1,0-0.257,0-0.473c0-0.215-0.003-0.444-0.008-0.689s-0.007-0.487-0.007-0.728
		s0-0.435,0-0.585v-5.415h1.529v10.5H326.137z"/>
	<path fill="#010202" d="M340.251,20.285c0,0.8-0.104,1.53-0.314,2.19s-0.508,1.229-0.893,1.709
		c-0.385,0.48-0.853,0.854-1.402,1.118c-0.551,0.265-1.165,0.397-1.846,0.397c-0.68,0-1.292-0.133-1.837-0.397
		s-1.011-0.638-1.396-1.118c-0.385-0.479-0.683-1.049-0.893-1.709s-0.314-1.39-0.314-2.19c0-0.79,0.104-1.518,0.314-2.183
		s0.508-1.237,0.893-1.717s0.851-0.853,1.396-1.118c0.545-0.265,1.157-0.397,1.837-0.397c0.681,0,1.295,0.133,1.846,0.397
		c0.55,0.265,1.018,0.638,1.402,1.118s0.683,1.052,0.893,1.717S340.251,19.495,340.251,20.285z M338.646,20.285
		c0-1.18-0.243-2.115-0.728-2.805c-0.485-0.69-1.192-1.035-2.123-1.035c-0.92,0-1.622,0.345-2.107,1.035
		c-0.484,0.69-0.728,1.625-0.728,2.805c0,1.18,0.243,2.115,0.728,2.806c0.485,0.689,1.188,1.034,2.107,1.034
		c0.931,0,1.638-0.345,2.123-1.034C338.403,22.4,338.646,21.465,338.646,20.285z"/>
	<path fill="#010202" d="M349.507,25.535v-10.5h6.75v1.545h-5.19v2.565h3.016v1.545h-3.016v3.3h5.415v1.545H349.507z M353.122,14.36
		h-1.23l1.605-2.4h2.1L353.122,14.36z"/>
	<path fill="#010202" d="M367.252,22.521c0,0.47-0.078,0.899-0.232,1.289c-0.155,0.391-0.391,0.726-0.705,1.006
		c-0.315,0.279-0.718,0.497-1.208,0.652c-0.49,0.154-1.07,0.232-1.74,0.232c-0.77,0-1.473-0.152-2.107-0.457
		c-0.635-0.306-1.177-0.718-1.627-1.238l1.125-1.095c0.35,0.38,0.767,0.683,1.252,0.907s0.978,0.338,1.478,0.338
		c1.45,0,2.175-0.51,2.175-1.53c0-0.2-0.04-0.38-0.119-0.54c-0.081-0.16-0.216-0.307-0.405-0.442
		c-0.19-0.135-0.436-0.262-0.735-0.382s-0.67-0.245-1.109-0.375c-0.561-0.16-1.046-0.325-1.455-0.495
		c-0.41-0.17-0.75-0.368-1.021-0.592c-0.27-0.225-0.473-0.498-0.607-0.818c-0.135-0.32-0.202-0.715-0.202-1.185
		c0-0.45,0.09-0.857,0.27-1.222c0.181-0.365,0.425-0.672,0.735-0.922c0.31-0.25,0.677-0.443,1.103-0.578
		c0.425-0.135,0.877-0.203,1.357-0.203c0.72,0,1.354,0.125,1.905,0.375c0.55,0.25,1.06,0.6,1.529,1.05l-1.109,1.125
		c-0.33-0.34-0.69-0.592-1.08-0.757c-0.391-0.165-0.846-0.248-1.365-0.248c-0.62,0-1.067,0.13-1.343,0.39
		c-0.274,0.26-0.412,0.565-0.412,0.915c0,0.18,0.035,0.343,0.104,0.487c0.07,0.145,0.19,0.28,0.36,0.405s0.405,0.248,0.705,0.367
		c0.3,0.12,0.675,0.245,1.125,0.375c0.52,0.16,0.987,0.325,1.402,0.495c0.415,0.17,0.768,0.375,1.058,0.615
		c0.29,0.24,0.513,0.525,0.668,0.855C367.174,21.65,367.252,22.05,367.252,22.521z"/>
	<path fill="#010202" d="M382.693,25.183c-0.615,0.346-1.322,0.518-2.123,0.518c-0.68,0-1.292-0.133-1.837-0.397
		s-1.011-0.638-1.396-1.118c-0.385-0.479-0.683-1.049-0.893-1.709s-0.314-1.39-0.314-2.19c0-0.79,0.104-1.518,0.314-2.183
		s0.508-1.237,0.893-1.717s0.851-0.853,1.396-1.118c0.545-0.265,1.157-0.397,1.837-0.397c0.86,0,1.58,0.167,2.16,0.502
		c0.58,0.335,1.05,0.823,1.41,1.462l-1.395,0.87c-0.271-0.43-0.565-0.748-0.886-0.953c-0.319-0.205-0.75-0.307-1.29-0.307
		c-0.92,0-1.619,0.345-2.1,1.035c-0.479,0.69-0.72,1.625-0.72,2.805c0,1.18,0.24,2.115,0.72,2.806c0.48,0.689,1.18,1.034,2.1,1.034
		c0.55,0,1.006-0.11,1.365-0.33c0.36-0.22,0.675-0.545,0.945-0.975l1.305,0.87C383.806,24.341,383.309,24.838,382.693,25.183z"/>
	<path fill="#010202" d="M396.335,20.285c0,0.8-0.104,1.53-0.314,2.19s-0.508,1.229-0.893,1.709
		c-0.385,0.48-0.853,0.854-1.402,1.118c-0.551,0.265-1.165,0.397-1.846,0.397c-0.68,0-1.292-0.133-1.837-0.397
		s-1.011-0.638-1.396-1.118c-0.385-0.479-0.683-1.049-0.893-1.709s-0.314-1.39-0.314-2.19c0-0.79,0.104-1.518,0.314-2.183
		s0.508-1.237,0.893-1.717s0.851-0.853,1.396-1.118c0.545-0.265,1.157-0.397,1.837-0.397c0.681,0,1.295,0.133,1.846,0.397
		c0.55,0.265,1.018,0.638,1.402,1.118s0.683,1.052,0.893,1.717S396.335,19.495,396.335,20.285z M394.73,20.285
		c0-1.18-0.243-2.115-0.728-2.805c-0.485-0.69-1.192-1.035-2.123-1.035c-0.92,0-1.622,0.345-2.107,1.035
		c-0.484,0.69-0.728,1.625-0.728,2.805c0,1.18,0.243,2.115,0.728,2.806c0.485,0.689,1.188,1.034,2.107,1.034
		c0.931,0,1.638-0.345,2.123-1.034C394.487,22.4,394.73,21.465,394.73,20.285z"/>
	<path fill="#010202" d="M408.035,18.17c0,0.85-0.205,1.53-0.614,2.04c-0.41,0.51-0.976,0.855-1.695,1.035l2.145,4.29h-1.811
		l-2.08-4.155h-2.364v4.155h-1.56v-10.5h4.604c0.46,0,0.893,0.062,1.298,0.188s0.763,0.315,1.072,0.57
		c0.31,0.255,0.555,0.58,0.735,0.975C407.945,17.163,408.035,17.63,408.035,18.17z M406.445,18.215c0-0.55-0.162-0.97-0.486-1.26
		c-0.323-0.29-0.755-0.435-1.293-0.435h-3.051v3.375h3.051c0.528,0,0.957-0.137,1.286-0.413
		C406.281,19.208,406.445,18.785,406.445,18.215z"/>
	<path fill="#010202" d="M419.931,18.17c0,0.85-0.205,1.53-0.614,2.04c-0.41,0.51-0.976,0.855-1.695,1.035l2.145,4.29h-1.811
		l-2.08-4.155h-2.364v4.155h-1.56v-10.5h4.604c0.46,0,0.893,0.062,1.298,0.188s0.763,0.315,1.072,0.57
		c0.31,0.255,0.555,0.58,0.735,0.975C419.841,17.163,419.931,17.63,419.931,18.17z M418.341,18.215c0-0.55-0.162-0.97-0.486-1.26
		c-0.323-0.29-0.755-0.435-1.293-0.435h-3.051v3.375h3.051c0.528,0,0.957-0.137,1.286-0.413
		C418.177,19.208,418.341,18.785,418.341,18.215z"/>
	<path fill="#010202" d="M423.846,25.535v-10.5h6.75v1.545h-5.19v2.565h3.016v1.545h-3.016v3.3h5.415v1.545H423.846z"/>
	<path fill="#010202" d="M440.623,25.183c-0.615,0.346-1.322,0.518-2.123,0.518c-0.68,0-1.292-0.133-1.837-0.397
		s-1.011-0.638-1.396-1.118c-0.385-0.479-0.683-1.049-0.893-1.709s-0.314-1.39-0.314-2.19c0-0.79,0.104-1.518,0.314-2.183
		s0.508-1.237,0.893-1.717s0.851-0.853,1.396-1.118c0.545-0.265,1.157-0.397,1.837-0.397c0.86,0,1.58,0.167,2.16,0.502
		c0.58,0.335,1.05,0.823,1.41,1.462l-1.395,0.87c-0.271-0.43-0.565-0.748-0.886-0.953c-0.319-0.205-0.75-0.307-1.29-0.307
		c-0.92,0-1.619,0.345-2.1,1.035c-0.479,0.69-0.72,1.625-0.72,2.805c0,1.18,0.24,2.115,0.72,2.806c0.48,0.689,1.18,1.034,2.1,1.034
		c0.55,0,1.006-0.11,1.365-0.33c0.36-0.22,0.675-0.545,0.945-0.975l1.305,0.87C441.735,24.341,441.238,24.838,440.623,25.183z"/>
	<path fill="#010202" d="M449.825,16.58v8.955h-1.561V16.58h-3.06v-1.545h7.68v1.545H449.825z"/>
	<path fill="#010202" d="M463.385,25.535l-0.885-2.49h-4.2l-0.87,2.49h-1.635l3.78-10.5h1.665l3.824,10.5H463.385z M461.18,19.22
		c-0.06-0.19-0.13-0.4-0.21-0.63s-0.157-0.46-0.232-0.69s-0.146-0.443-0.21-0.638c-0.065-0.195-0.112-0.347-0.143-0.458
		c-0.03,0.11-0.075,0.263-0.135,0.458c-0.061,0.195-0.125,0.405-0.195,0.63s-0.143,0.458-0.218,0.698
		c-0.074,0.24-0.147,0.455-0.217,0.645l-0.84,2.4h3.239L461.18,19.22z"/>
	<path fill="#010202" d="M470.345,24.515c0,0.32-0.117,0.598-0.353,0.833s-0.513,0.353-0.832,0.353c-0.32,0-0.598-0.117-0.833-0.353
		c-0.234-0.235-0.353-0.513-0.353-0.833c0-0.159,0.032-0.312,0.098-0.457s0.15-0.272,0.255-0.383
		c0.105-0.109,0.23-0.197,0.375-0.262c0.146-0.065,0.298-0.098,0.458-0.098c0.159,0,0.312,0.032,0.457,0.098
		c0.146,0.064,0.271,0.152,0.375,0.262c0.105,0.11,0.19,0.238,0.255,0.383C470.312,24.202,470.345,24.355,470.345,24.515z"/>
</g>
</svg>
