<?xml version="1.0" encoding="utf-8"?>
<!-- Generator: Adobe Illustrator 16.0.0, SVG Export Plug-In . SVG Version: 6.00 Build 0)  -->
<!DOCTYPE svg PUBLIC "-//W3C//DTD SVG 1.1//EN" "http://www.w3.org/Graphics/SVG/1.1/DTD/svg11.dtd">
<svg version="1.1" id="Capa_1" xmlns="http://www.w3.org/2000/svg" xmlns:xlink="http://www.w3.org/1999/xlink" x="0px" y="0px"
	 width="1064px" height="40.391px" viewBox="0 0 1064 40.391" enable-background="new 0 0 1064 40.391" xml:space="preserve">
<path fill="#1E1E1C" d="M1064,40.391H0V0h1064V40.391z M2,38.391h1060V2H2V38.391z"/>
<rect x="38.391" y="1" fill="#1E1E1C" width="2" height="38.391"/>
<g>
	<path fill="#1E1E1C" d="M69.345,19.535c0,0.85-0.205,1.53-0.614,2.04c-0.41,0.51-0.976,0.855-1.695,1.035l2.145,4.29h-1.811
		l-2.08-4.155h-2.364V26.9h-1.56V16.4h4.604c0.46,0,0.893,0.062,1.298,0.188s0.763,0.315,1.072,0.57
		c0.31,0.255,0.555,0.58,0.735,0.975C69.255,18.528,69.345,18.996,69.345,19.535z M67.755,19.581c0-0.55-0.162-0.97-0.486-1.26
		c-0.323-0.29-0.755-0.435-1.293-0.435h-3.051v3.375h3.051c0.528,0,0.957-0.137,1.286-0.413
		C67.591,20.573,67.755,20.15,67.755,19.581z"/>
	<path fill="#1E1E1C" d="M73.26,26.9V16.4h6.75v1.545h-5.19v2.565h3.016v1.545h-3.016v3.3h5.415V26.9H73.26z"/>
	<path fill="#1E1E1C" d="M91.612,24.598c-0.195,0.525-0.471,0.973-0.825,1.343c-0.355,0.37-0.777,0.65-1.268,0.84
		s-1.025,0.285-1.605,0.285c-0.68,0-1.292-0.133-1.837-0.397s-1.011-0.638-1.396-1.118c-0.385-0.479-0.683-1.049-0.893-1.709
		s-0.314-1.391-0.314-2.19c0-0.79,0.104-1.518,0.314-2.183s0.508-1.237,0.893-1.717s0.851-0.853,1.396-1.118
		c0.545-0.265,1.157-0.397,1.837-0.397c0.86,0,1.58,0.167,2.16,0.502c0.58,0.335,1.05,0.823,1.41,1.462l-1.38,0.855
		c-0.27-0.43-0.567-0.745-0.893-0.945c-0.325-0.2-0.758-0.3-1.298-0.3c-0.92,0-1.622,0.345-2.107,1.035
		c-0.484,0.69-0.728,1.625-0.728,2.805c0,1.181,0.243,2.115,0.728,2.806c0.485,0.689,1.188,1.034,2.107,1.034
		c0.431,0,0.796-0.065,1.096-0.194c0.3-0.131,0.545-0.303,0.734-0.518c0.19-0.215,0.33-0.465,0.42-0.75
		c0.091-0.285,0.136-0.583,0.136-0.893v-0.045h-1.71v-1.516h3.314v1.215C91.904,23.471,91.807,24.073,91.612,24.598z"/>
	<path fill="#1E1E1C" d="M95.7,26.9V16.4h1.56v10.5H95.7z"/>
	<path fill="#1E1E1C" d="M108.6,23.886c0,0.47-0.078,0.899-0.232,1.289c-0.155,0.391-0.391,0.726-0.705,1.006
		c-0.315,0.279-0.718,0.497-1.208,0.652c-0.49,0.154-1.07,0.232-1.74,0.232c-0.77,0-1.473-0.152-2.107-0.457
		c-0.635-0.306-1.177-0.718-1.627-1.238l1.125-1.095c0.35,0.38,0.767,0.683,1.252,0.907s0.978,0.338,1.478,0.338
		c1.45,0,2.175-0.51,2.175-1.53c0-0.2-0.04-0.38-0.119-0.54c-0.081-0.16-0.216-0.307-0.405-0.442
		c-0.19-0.135-0.436-0.263-0.735-0.382c-0.3-0.121-0.67-0.246-1.109-0.375c-0.561-0.16-1.046-0.325-1.455-0.496
		c-0.41-0.169-0.75-0.367-1.021-0.592c-0.27-0.225-0.473-0.498-0.607-0.818c-0.135-0.32-0.202-0.715-0.202-1.185
		c0-0.45,0.09-0.857,0.27-1.222c0.181-0.365,0.425-0.672,0.735-0.922c0.31-0.25,0.677-0.443,1.103-0.578
		c0.425-0.135,0.877-0.203,1.357-0.203c0.72,0,1.354,0.125,1.905,0.375c0.55,0.25,1.06,0.6,1.529,1.05l-1.109,1.125
		c-0.33-0.34-0.69-0.592-1.08-0.757c-0.391-0.165-0.846-0.248-1.365-0.248c-0.62,0-1.067,0.13-1.343,0.39
		c-0.274,0.26-0.412,0.565-0.412,0.915c0,0.18,0.035,0.343,0.104,0.487c0.07,0.145,0.19,0.28,0.36,0.405s0.405,0.248,0.705,0.367
		c0.3,0.12,0.675,0.245,1.125,0.375c0.52,0.16,0.987,0.325,1.402,0.495c0.415,0.17,0.768,0.375,1.058,0.616
		c0.29,0.239,0.513,0.524,0.668,0.854C108.521,23.016,108.6,23.415,108.6,23.886z"/>
	<path fill="#1E1E1C" d="M116.399,17.945V26.9h-1.561v-8.955h-3.06V16.4h7.68v1.545H116.399z"/>
	<path fill="#1E1E1C" d="M131.009,19.535c0,0.85-0.205,1.53-0.614,2.04c-0.41,0.51-0.976,0.855-1.695,1.035l2.145,4.29h-1.811
		l-2.08-4.155h-2.364V26.9h-1.56V16.4h4.604c0.46,0,0.893,0.062,1.298,0.188s0.763,0.315,1.072,0.57
		c0.31,0.255,0.555,0.58,0.735,0.975C130.919,18.528,131.009,18.996,131.009,19.535z M129.419,19.581c0-0.55-0.162-0.97-0.486-1.26
		c-0.323-0.29-0.755-0.435-1.293-0.435h-3.051v3.375h3.051c0.528,0,0.957-0.137,1.286-0.413
		C129.255,20.573,129.419,20.15,129.419,19.581z"/>
	<path fill="#1E1E1C" d="M134.924,26.9V16.4h6.75v1.545h-5.19v2.565h3.016v1.545h-3.016v3.3h5.415V26.9H134.924z"/>
	<path fill="#1E1E1C" d="M157.236,26.548c-0.615,0.346-1.322,0.518-2.123,0.518c-0.68,0-1.292-0.133-1.837-0.397
		s-1.011-0.638-1.396-1.118c-0.385-0.479-0.683-1.049-0.893-1.709s-0.314-1.391-0.314-2.19c0-0.79,0.104-1.518,0.314-2.183
		s0.508-1.237,0.893-1.717s0.851-0.853,1.396-1.118c0.545-0.265,1.157-0.397,1.837-0.397c0.86,0,1.58,0.167,2.16,0.502
		c0.58,0.335,1.05,0.823,1.41,1.462l-1.395,0.87c-0.271-0.43-0.565-0.748-0.886-0.953c-0.319-0.205-0.75-0.307-1.29-0.307
		c-0.92,0-1.619,0.345-2.1,1.035c-0.479,0.69-0.72,1.625-0.72,2.805c0,1.181,0.24,2.115,0.72,2.806c0.48,0.689,1.18,1.034,2.1,1.034
		c0.55,0,1.006-0.11,1.365-0.33c0.36-0.22,0.675-0.545,0.945-0.975l1.305,0.87C158.349,25.706,157.852,26.203,157.236,26.548z"/>
	<path fill="#1E1E1C" d="M170.878,21.65c0,0.8-0.104,1.53-0.314,2.19s-0.508,1.229-0.893,1.709c-0.385,0.48-0.853,0.854-1.402,1.118
		c-0.551,0.265-1.165,0.397-1.846,0.397c-0.68,0-1.292-0.133-1.837-0.397s-1.011-0.638-1.396-1.118
		c-0.385-0.479-0.683-1.049-0.893-1.709s-0.314-1.391-0.314-2.19c0-0.79,0.104-1.518,0.314-2.183s0.508-1.237,0.893-1.717
		s0.851-0.853,1.396-1.118c0.545-0.265,1.157-0.397,1.837-0.397c0.681,0,1.295,0.133,1.846,0.397
		c0.55,0.265,1.018,0.638,1.402,1.118s0.683,1.052,0.893,1.717S170.878,20.86,170.878,21.65z M169.273,21.65
		c0-1.18-0.243-2.115-0.728-2.805c-0.485-0.69-1.192-1.035-2.123-1.035c-0.92,0-1.622,0.345-2.107,1.035
		c-0.484,0.69-0.728,1.625-0.728,2.805c0,1.181,0.243,2.115,0.728,2.806c0.485,0.689,1.188,1.034,2.107,1.034
		c0.931,0,1.638-0.345,2.123-1.034C169.03,23.766,169.273,22.831,169.273,21.65z"/>
	<path fill="#1E1E1C" d="M182.443,26.9v-5.55c0-0.16,0-0.33,0-0.51s0.002-0.357,0.008-0.532c0.005-0.175,0.01-0.333,0.015-0.473
		s0.008-0.25,0.008-0.33c-0.061,0.15-0.155,0.388-0.285,0.712c-0.13,0.325-0.26,0.638-0.39,0.938l-2.551,5.91l-2.52-5.91
		c-0.13-0.3-0.261-0.612-0.39-0.938c-0.131-0.325-0.226-0.562-0.285-0.712c0,0.08,0.002,0.19,0.007,0.33s0.01,0.297,0.016,0.473
		c0.005,0.175,0.007,0.352,0.007,0.532s0,0.35,0,0.51v5.55h-1.484V16.4h1.62l2.354,5.595c0.13,0.301,0.265,0.621,0.405,0.961
		c0.14,0.34,0.245,0.619,0.314,0.84c0.08-0.221,0.186-0.498,0.315-0.833s0.26-0.657,0.39-0.968l2.311-5.595h1.694v10.5H182.443z"/>
	<path fill="#1E1E1C" d="M195.974,19.686c0,0.54-0.085,1.015-0.254,1.425c-0.17,0.41-0.409,0.756-0.719,1.035s-0.676,0.49-1.1,0.63
		s-0.891,0.21-1.399,0.21h-2.738V26.9h-1.56V16.4h4.395c0.48,0,0.928,0.07,1.343,0.21c0.415,0.14,0.772,0.348,1.072,0.623
		s0.535,0.618,0.705,1.027C195.889,18.67,195.974,19.146,195.974,19.686z M194.369,19.686c0-0.58-0.162-1.025-0.486-1.335
		c-0.323-0.31-0.76-0.465-1.308-0.465h-2.812V21.5h2.812c0.598,0,1.046-0.16,1.345-0.48
		C194.22,20.701,194.369,20.255,194.369,19.686z"/>
	<path fill="#1E1E1C" d="M199.484,26.9V16.4h1.56v8.955h5.235V26.9H199.484z"/>
	<path fill="#1E1E1C" d="M209.894,26.9V16.4h6.75v1.545h-5.19v2.565h3.016v1.545h-3.016v3.3h5.415V26.9H209.894z"/>
	<path fill="#1E1E1C" d="M224.563,17.945V26.9h-1.561v-8.955h-3.06V16.4h7.68v1.545H224.563z"/>
	<path fill="#1E1E1C" d="M238.123,26.9l-0.885-2.49h-4.2l-0.87,2.49h-1.635l3.78-10.5h1.665l3.824,10.5H238.123z M235.918,20.585
		c-0.06-0.19-0.13-0.4-0.21-0.63s-0.157-0.46-0.232-0.69s-0.146-0.443-0.21-0.638c-0.065-0.195-0.112-0.347-0.143-0.458
		c-0.03,0.11-0.075,0.263-0.135,0.458c-0.061,0.195-0.125,0.405-0.195,0.63s-0.143,0.458-0.218,0.698
		c-0.074,0.24-0.147,0.455-0.217,0.645l-0.84,2.4h3.239L235.918,20.585z"/>
	<path fill="#1E1E1C" d="M247.318,17.945V26.9h-1.561v-8.955h-3.06V16.4h7.68v1.545H247.318z"/>
	<path fill="#1E1E1C" d="M265.551,26.548c-0.615,0.346-1.322,0.518-2.123,0.518c-0.68,0-1.292-0.133-1.837-0.397
		s-1.011-0.638-1.396-1.118c-0.385-0.479-0.683-1.049-0.893-1.709s-0.314-1.391-0.314-2.19c0-0.79,0.104-1.518,0.314-2.183
		s0.508-1.237,0.893-1.717s0.851-0.853,1.396-1.118c0.545-0.265,1.157-0.397,1.837-0.397c0.86,0,1.58,0.167,2.16,0.502
		c0.58,0.335,1.05,0.823,1.41,1.462l-1.395,0.87c-0.271-0.43-0.565-0.748-0.886-0.953c-0.319-0.205-0.75-0.307-1.29-0.307
		c-0.92,0-1.619,0.345-2.1,1.035c-0.479,0.69-0.72,1.625-0.72,2.805c0,1.181,0.24,2.115,0.72,2.806c0.48,0.689,1.18,1.034,2.1,1.034
		c0.55,0,1.006-0.11,1.365-0.33c0.36-0.22,0.675-0.545,0.945-0.975l1.305,0.87C266.663,25.706,266.166,26.203,265.551,26.548z"/>
	<path fill="#1E1E1C" d="M279.192,21.65c0,0.8-0.104,1.53-0.314,2.19s-0.508,1.229-0.893,1.709c-0.385,0.48-0.853,0.854-1.402,1.118
		c-0.551,0.265-1.165,0.397-1.846,0.397c-0.68,0-1.292-0.133-1.837-0.397s-1.011-0.638-1.396-1.118
		c-0.385-0.479-0.683-1.049-0.893-1.709s-0.314-1.391-0.314-2.19c0-0.79,0.104-1.518,0.314-2.183s0.508-1.237,0.893-1.717
		s0.851-0.853,1.396-1.118c0.545-0.265,1.157-0.397,1.837-0.397c0.681,0,1.295,0.133,1.846,0.397
		c0.55,0.265,1.018,0.638,1.402,1.118s0.683,1.052,0.893,1.717S279.192,20.86,279.192,21.65z M277.588,21.65
		c0-1.18-0.243-2.115-0.728-2.805c-0.485-0.69-1.192-1.035-2.123-1.035c-0.92,0-1.622,0.345-2.107,1.035
		c-0.484,0.69-0.728,1.625-0.728,2.805c0,1.181,0.243,2.115,0.728,2.806c0.485,0.689,1.188,1.034,2.107,1.034
		c0.931,0,1.638-0.345,2.123-1.034C277.345,23.766,277.588,22.831,277.588,21.65z"/>
	<path fill="#1E1E1C" d="M290.893,19.535c0,0.85-0.205,1.53-0.614,2.04c-0.41,0.51-0.976,0.855-1.695,1.035l2.145,4.29h-1.811
		l-2.08-4.155h-2.364V26.9h-1.56V16.4h4.604c0.46,0,0.893,0.062,1.298,0.188s0.763,0.315,1.072,0.57
		c0.31,0.255,0.555,0.58,0.735,0.975C290.803,18.528,290.893,18.996,290.893,19.535z M289.303,19.581c0-0.55-0.162-0.97-0.486-1.26
		c-0.323-0.29-0.755-0.435-1.293-0.435h-3.051v3.375h3.051c0.528,0,0.957-0.137,1.286-0.413
		C289.139,20.573,289.303,20.15,289.303,19.581z"/>
	<path fill="#1E1E1C" d="M302.787,19.535c0,0.85-0.205,1.53-0.614,2.04c-0.41,0.51-0.976,0.855-1.695,1.035l2.145,4.29h-1.811
		l-2.08-4.155h-2.364V26.9h-1.56V16.4h4.604c0.46,0,0.893,0.062,1.298,0.188s0.763,0.315,1.072,0.57
		c0.31,0.255,0.555,0.58,0.735,0.975C302.697,18.528,302.787,18.996,302.787,19.535z M301.197,19.581c0-0.55-0.162-0.97-0.486-1.26
		c-0.323-0.29-0.755-0.435-1.293-0.435h-3.051v3.375h3.051c0.528,0,0.957-0.137,1.286-0.413
		C301.033,20.573,301.197,20.15,301.197,19.581z"/>
	<path fill="#1E1E1C" d="M306.703,26.9V16.4h6.75v1.545h-5.19v2.565h3.016v1.545h-3.016v3.3h5.415V26.9H306.703z"/>
	<path fill="#1E1E1C" d="M323.479,26.548c-0.615,0.346-1.322,0.518-2.123,0.518c-0.68,0-1.292-0.133-1.837-0.397
		s-1.011-0.638-1.396-1.118c-0.385-0.479-0.683-1.049-0.893-1.709s-0.314-1.391-0.314-2.19c0-0.79,0.104-1.518,0.314-2.183
		s0.508-1.237,0.893-1.717s0.851-0.853,1.396-1.118c0.545-0.265,1.157-0.397,1.837-0.397c0.86,0,1.58,0.167,2.16,0.502
		c0.58,0.335,1.05,0.823,1.41,1.462l-1.395,0.87c-0.271-0.43-0.565-0.748-0.886-0.953c-0.319-0.205-0.75-0.307-1.29-0.307
		c-0.92,0-1.619,0.345-2.1,1.035c-0.479,0.69-0.72,1.625-0.72,2.805c0,1.181,0.24,2.115,0.72,2.806c0.48,0.689,1.18,1.034,2.1,1.034
		c0.55,0,1.006-0.11,1.365-0.33c0.36-0.22,0.675-0.545,0.945-0.975l1.305,0.87C324.592,25.706,324.095,26.203,323.479,26.548z"/>
	<path fill="#1E1E1C" d="M332.683,17.945V26.9h-1.561v-8.955h-3.06V16.4h7.68v1.545H332.683z"/>
	<path fill="#1E1E1C" d="M346.242,26.9l-0.885-2.49h-4.2l-0.87,2.49h-1.635l3.78-10.5h1.665l3.824,10.5H346.242z M344.037,20.585
		c-0.06-0.19-0.13-0.4-0.21-0.63s-0.157-0.46-0.232-0.69s-0.146-0.443-0.21-0.638c-0.065-0.195-0.112-0.347-0.143-0.458
		c-0.03,0.11-0.075,0.263-0.135,0.458c-0.061,0.195-0.125,0.405-0.195,0.63s-0.143,0.458-0.218,0.698
		c-0.074,0.24-0.147,0.455-0.217,0.645l-0.84,2.4h3.239L344.037,20.585z"/>
	<path fill="#1E1E1C" d="M359.322,26.9v-5.55c0-0.16,0-0.33,0-0.51s0.002-0.357,0.008-0.532c0.005-0.175,0.01-0.333,0.015-0.473
		s0.008-0.25,0.008-0.33c-0.061,0.15-0.155,0.388-0.285,0.712c-0.13,0.325-0.26,0.638-0.39,0.938l-2.551,5.91l-2.52-5.91
		c-0.13-0.3-0.261-0.612-0.39-0.938c-0.131-0.325-0.226-0.562-0.285-0.712c0,0.08,0.002,0.19,0.007,0.33s0.01,0.297,0.016,0.473
		c0.005,0.175,0.007,0.352,0.007,0.532s0,0.35,0,0.51v5.55h-1.484V16.4h1.62l2.354,5.595c0.13,0.301,0.265,0.621,0.405,0.961
		c0.14,0.34,0.245,0.619,0.314,0.84c0.08-0.221,0.186-0.498,0.315-0.833s0.26-0.657,0.39-0.968l2.311-5.595h1.694v10.5H359.322z"/>
	<path fill="#1E1E1C" d="M365.082,26.9V16.4h6.75v1.545h-5.19v2.565h3.016v1.545h-3.016v3.3h5.415V26.9H365.082z"/>
	<path fill="#1E1E1C" d="M382.271,26.9l-4.185-6.585c-0.13-0.2-0.272-0.43-0.428-0.69s-0.272-0.46-0.353-0.6c0,0.1,0,0.255,0,0.465
		s0.003,0.435,0.008,0.675c0.005,0.24,0.007,0.478,0.007,0.712s0,0.427,0,0.578V26.9h-1.529V16.4h1.604l3.99,6.405
		c0.07,0.109,0.147,0.234,0.232,0.375c0.085,0.14,0.167,0.282,0.248,0.428c0.079,0.145,0.154,0.277,0.225,0.396
		c0.069,0.121,0.125,0.216,0.165,0.285c0-0.1,0-0.257,0-0.473c0-0.215-0.003-0.444-0.008-0.689s-0.007-0.487-0.007-0.728
		s0-0.435,0-0.585V16.4h1.529v10.5H382.271z"/>
	<path fill="#1E1E1C" d="M391.947,17.945V26.9h-1.561v-8.955h-3.06V16.4h7.68v1.545H391.947z"/>
	<path fill="#1E1E1C" d="M400.302,25.88c0,0.32-0.117,0.598-0.353,0.833s-0.513,0.353-0.832,0.353c-0.32,0-0.598-0.117-0.833-0.353
		c-0.234-0.235-0.353-0.513-0.353-0.833c0-0.159,0.032-0.312,0.098-0.457s0.15-0.272,0.255-0.383
		c0.105-0.109,0.23-0.197,0.375-0.262c0.146-0.065,0.298-0.098,0.458-0.098c0.159,0,0.312,0.032,0.457,0.098
		c0.146,0.064,0.271,0.152,0.375,0.262c0.105,0.11,0.19,0.238,0.255,0.383C400.27,25.567,400.302,25.721,400.302,25.88z"/>
	<path fill="#1E1E1C" d="M417.049,24.598c-0.195,0.525-0.471,0.973-0.825,1.343c-0.355,0.37-0.777,0.65-1.268,0.84
		s-1.025,0.285-1.605,0.285c-0.68,0-1.292-0.133-1.837-0.397s-1.011-0.638-1.396-1.118c-0.385-0.479-0.683-1.049-0.893-1.709
		s-0.314-1.391-0.314-2.19c0-0.79,0.104-1.518,0.314-2.183s0.508-1.237,0.893-1.717s0.851-0.853,1.396-1.118
		c0.545-0.265,1.157-0.397,1.837-0.397c0.86,0,1.58,0.167,2.16,0.502c0.58,0.335,1.05,0.823,1.41,1.462l-1.38,0.855
		c-0.27-0.43-0.567-0.745-0.893-0.945c-0.325-0.2-0.758-0.3-1.298-0.3c-0.92,0-1.622,0.345-2.107,1.035
		c-0.484,0.69-0.728,1.625-0.728,2.805c0,1.181,0.243,2.115,0.728,2.806c0.485,0.689,1.188,1.034,2.107,1.034
		c0.431,0,0.796-0.065,1.096-0.194c0.3-0.131,0.545-0.303,0.734-0.518c0.19-0.215,0.33-0.465,0.42-0.75
		c0.091-0.285,0.136-0.583,0.136-0.893v-0.045h-1.71v-1.516h3.314v1.215C417.341,23.471,417.243,24.073,417.049,24.598z"/>
	<path fill="#1E1E1C" d="M429.041,19.535c0,0.85-0.205,1.53-0.614,2.04c-0.41,0.51-0.976,0.855-1.695,1.035l2.145,4.29h-1.811
		l-2.08-4.155h-2.364V26.9h-1.56V16.4h4.604c0.46,0,0.893,0.062,1.298,0.188s0.763,0.315,1.072,0.57
		c0.31,0.255,0.555,0.58,0.735,0.975C428.951,18.528,429.041,18.996,429.041,19.535z M427.451,19.581c0-0.55-0.162-0.97-0.486-1.26
		c-0.323-0.29-0.755-0.435-1.293-0.435h-3.051v3.375h3.051c0.528,0,0.957-0.137,1.286-0.413
		C427.287,20.573,427.451,20.15,427.451,19.581z"/>
	<path fill="#1E1E1C" d="M439.886,26.9l-0.885-2.49h-4.2l-0.87,2.49h-1.635l3.78-10.5h1.665l3.824,10.5H439.886z M436.586,15.726
		l-2.476-2.4h2.101l1.604,2.4H436.586z M437.681,20.585c-0.06-0.19-0.13-0.4-0.21-0.63s-0.157-0.46-0.232-0.69
		s-0.146-0.443-0.21-0.638c-0.065-0.195-0.112-0.347-0.143-0.458c-0.03,0.11-0.075,0.263-0.135,0.458
		c-0.061,0.195-0.125,0.405-0.195,0.63s-0.143,0.458-0.218,0.698c-0.074,0.24-0.147,0.455-0.217,0.645l-0.84,2.4h3.239
		L437.681,20.585z"/>
	<path fill="#1E1E1C" d="M451.188,26.548c-0.615,0.346-1.322,0.518-2.123,0.518c-0.68,0-1.292-0.133-1.837-0.397
		s-1.011-0.638-1.396-1.118c-0.385-0.479-0.683-1.049-0.893-1.709s-0.314-1.391-0.314-2.19c0-0.79,0.104-1.518,0.314-2.183
		s0.508-1.237,0.893-1.717s0.851-0.853,1.396-1.118c0.545-0.265,1.157-0.397,1.837-0.397c0.86,0,1.58,0.167,2.16,0.502
		c0.58,0.335,1.05,0.823,1.41,1.462l-1.395,0.87c-0.271-0.43-0.565-0.748-0.886-0.953c-0.319-0.205-0.75-0.307-1.29-0.307
		c-0.92,0-1.619,0.345-2.1,1.035c-0.479,0.69-0.72,1.625-0.72,2.805c0,1.181,0.24,2.115,0.72,2.806c0.48,0.689,1.18,1.034,2.1,1.034
		c0.55,0,1.006-0.11,1.365-0.33c0.36-0.22,0.675-0.545,0.945-0.975l1.305,0.87C452.301,25.706,451.804,26.203,451.188,26.548z"/>
	<path fill="#1E1E1C" d="M456.507,26.9V16.4h1.56v10.5H456.507z"/>
	<path fill="#1E1E1C" d="M462.371,26.9V16.4h6.75v1.545h-5.19v2.565h3.016v1.545h-3.016v3.3h5.415V26.9H462.371z"/>
	<path fill="#1E1E1C" d="M480.116,23.886c0,0.47-0.078,0.899-0.232,1.289c-0.155,0.391-0.391,0.726-0.705,1.006
		c-0.315,0.279-0.718,0.497-1.208,0.652c-0.49,0.154-1.07,0.232-1.74,0.232c-0.77,0-1.473-0.152-2.107-0.457
		c-0.635-0.306-1.177-0.718-1.627-1.238l1.125-1.095c0.35,0.38,0.767,0.683,1.252,0.907s0.978,0.338,1.478,0.338
		c1.45,0,2.175-0.51,2.175-1.53c0-0.2-0.04-0.38-0.119-0.54c-0.081-0.16-0.216-0.307-0.405-0.442
		c-0.19-0.135-0.436-0.263-0.735-0.382c-0.3-0.121-0.67-0.246-1.109-0.375c-0.561-0.16-1.046-0.325-1.455-0.496
		c-0.41-0.169-0.75-0.367-1.021-0.592c-0.27-0.225-0.473-0.498-0.607-0.818c-0.135-0.32-0.202-0.715-0.202-1.185
		c0-0.45,0.09-0.857,0.27-1.222c0.181-0.365,0.425-0.672,0.735-0.922c0.31-0.25,0.677-0.443,1.103-0.578
		c0.425-0.135,0.877-0.203,1.357-0.203c0.72,0,1.354,0.125,1.905,0.375c0.55,0.25,1.06,0.6,1.529,1.05l-1.109,1.125
		c-0.33-0.34-0.69-0.592-1.08-0.757c-0.391-0.165-0.846-0.248-1.365-0.248c-0.62,0-1.067,0.13-1.343,0.39
		c-0.274,0.26-0.412,0.565-0.412,0.915c0,0.18,0.035,0.343,0.104,0.487c0.07,0.145,0.19,0.28,0.36,0.405s0.405,0.248,0.705,0.367
		c0.3,0.12,0.675,0.245,1.125,0.375c0.52,0.16,0.987,0.325,1.402,0.495c0.415,0.17,0.768,0.375,1.058,0.616
		c0.29,0.239,0.513,0.524,0.668,0.854C480.038,23.016,480.116,23.415,480.116,23.886z"/>
</g>
<g>
	<path fill="#010202" d="M17.762,26.763c0.123,0.098,0.271,0.146,0.419,0.146c0.186,0,0.37-0.076,0.502-0.226l10.742-12.085
		c0.247-0.276,0.222-0.702-0.055-0.947c-0.278-0.247-0.702-0.222-0.948,0.056L18.103,25.315l-6.216-4.973
		c-0.288-0.231-0.712-0.183-0.943,0.105c-0.231,0.29-0.185,0.712,0.104,0.944L17.762,26.763z"/>
	<path fill="#010202" d="M18.181,27.409c-0.266,0-0.525-0.092-0.731-0.257l-6.714-5.37c-0.503-0.404-0.585-1.143-0.183-1.647
		c0.391-0.486,1.162-0.573,1.647-0.183l5.844,4.675l10.004-11.253c0.411-0.465,1.188-0.512,1.654-0.098
		c0.234,0.208,0.373,0.495,0.391,0.808c0.019,0.312-0.087,0.613-0.295,0.846L19.057,27.016
		C18.835,27.266,18.516,27.409,18.181,27.409z M11.47,20.696c-0.025,0-0.09,0.006-0.137,0.064c-0.058,0.073-0.046,0.182,0.027,0.241
		l6.714,5.371c0.078,0.063,0.148,0.078,0.234-0.02l10.742-12.086c0.042-0.046,0.045-0.098,0.044-0.124
		c-0.002-0.026-0.011-0.077-0.057-0.118c-0.082-0.072-0.154-0.086-0.242,0.014L18.161,26.003l-6.587-5.27
		C11.536,20.702,11.496,20.696,11.47,20.696z"/>
</g>
</svg>
