<?xml version="1.0" encoding="utf-8"?>
<!-- Generator: Adobe Illustrator 16.0.0, SVG Export Plug-In . SVG Version: 6.00 Build 0)  -->
<!DOCTYPE svg PUBLIC "-//W3C//DTD SVG 1.1//EN" "http://www.w3.org/Graphics/SVG/1.1/DTD/svg11.dtd">
<svg version="1.1" id="Capa_1" xmlns="http://www.w3.org/2000/svg" xmlns:xlink="http://www.w3.org/1999/xlink" x="0px" y="0px"
	 width="1064px" height="40.391px" viewBox="0 0 1064 40.391" enable-background="new 0 0 1064 40.391" xml:space="preserve">
<g>
	<path fill="#1D1D1B" d="M1064,40.391H0V0h1064V40.391z M2,38.391h1060V2H2V38.391z"/>
	<line fill="none" stroke="#1D1D1B" stroke-width="2" stroke-miterlimit="10" x1="39.391" y1="1" x2="39.391" y2="39.391"/>
	<path stroke="#000000" stroke-miterlimit="10" d="M17.762,26.762c0.123,0.099,0.271,0.147,0.419,0.147
		c0.186,0,0.37-0.077,0.502-0.226l10.742-12.085c0.247-0.276,0.222-0.702-0.055-0.947c-0.278-0.247-0.702-0.222-0.948,0.056
		L18.103,25.315l-6.216-4.973c-0.288-0.231-0.712-0.183-0.943,0.105c-0.231,0.29-0.185,0.712,0.104,0.944L17.762,26.762z"/>
</g>
</svg>
