<?xml version="1.0" encoding="utf-8"?>
<!-- Generator: Adobe Illustrator 16.0.0, SVG Export Plug-In . SVG Version: 6.00 Build 0)  -->
<!DOCTYPE svg PUBLIC "-//W3C//DTD SVG 1.1//EN" "http://www.w3.org/Graphics/SVG/1.1/DTD/svg11.dtd">
<svg version="1.1" id="Capa_1" xmlns="http://www.w3.org/2000/svg" xmlns:xlink="http://www.w3.org/1999/xlink" x="0px" y="0px"
	 width="220.447px" height="419.924px" viewBox="0 0 220.447 419.924" enable-background="new 0 0 220.447 419.924"
	 xml:space="preserve">
<rect x="116.916" y="-8.989" transform="matrix(0.9571 0.2898 -0.2898 0.9571 65.9208 -25.2532)" fill="#1E1E1C" width="2.628" height="437.901"/>
<g>
	<g>
		<path fill="#010202" d="M58.08,191.604v18.958H45.764v-18.595H0v-12.075l43.59-53.854h14.49v54.337h11.229v11.229H58.08z
			 M46.125,140.285c-0.805,1.128-1.932,2.638-3.381,4.528c-1.449,1.892-2.857,3.724-4.227,5.494l-16.301,20.769
			c-1.289,1.611-2.717,3.341-4.287,5.192c-1.568,1.853-2.797,3.26-3.682,4.226c0.725,0,1.629,0,2.717,0
			c1.086,0,2.273-0.019,3.561-0.061c1.287-0.04,2.555-0.06,3.805-0.06c1.246,0,2.434,0,3.562,0h17.871v-24.633
			c0-1.208,0.018-2.536,0.059-3.985c0.041-1.449,0.08-2.898,0.121-4.347c0.041-1.449,0.08-2.796,0.121-4.045
			C46.104,142.117,46.125,141.091,46.125,140.285z"/>
		<g>
			<path fill="none" d="M106.016,140.623c-2.578,1.564-4.691,3.73-6.34,6.496c-1.65,2.766-2.838,6.054-3.562,9.864
				c-0.725,3.809-1.086,7.918-1.086,12.328c0,4.411,0.381,8.522,1.146,12.33c0.764,3.809,1.973,7.117,3.623,9.924
				c1.648,2.808,3.783,5.011,6.398,6.615c0.186,0.114,0.381,0.214,0.57,0.32l17.578-58.134c-2.504-1.385-5.471-2.086-8.91-2.086
				C111.73,138.278,108.59,139.061,106.016,140.623z"/>
			<path fill="#010202" d="M106.195,198.179c-2.615-1.604-4.75-3.807-6.398-6.615c-1.65-2.807-2.859-6.115-3.623-9.924
				c-0.766-3.808-1.146-7.918-1.146-12.33c0-4.409,0.361-8.519,1.086-12.328c0.725-3.81,1.912-7.098,3.562-9.864
				c1.648-2.766,3.762-4.932,6.34-6.496c2.574-1.562,5.715-2.345,9.418-2.345c3.439,0,6.406,0.702,8.91,2.086l3.705-12.259
				c-3.66-1.502-7.779-2.265-12.373-2.265c-5.477,0-10.285,1.087-14.43,3.26c-4.148,2.173-7.629,5.192-10.445,9.056
				c-2.818,3.864-4.951,8.473-6.4,13.826c-1.449,5.354-2.172,11.211-2.172,17.569c0,6.441,0.703,12.316,2.111,17.629
				s3.502,9.883,6.279,13.705c2.777,3.824,6.238,6.804,10.385,8.936c0.666,0.343,1.355,0.647,2.057,0.935l3.705-12.258
				C106.576,198.393,106.381,198.292,106.195,198.179z"/>
		</g>
	</g>
	<g>
		<polygon fill="none" points="168.648,256.894 192.918,256.894 192.918,223.569 192.676,223.569 		"/>
		<path fill="none" d="M122.641,291.909c11.713,0,11.713-13.885,11.713-27.529v-27.529c0-8.124-0.002-16.332-2.473-21.645
			l-19.969,66.045C113.174,287.519,116.057,291.909,122.641,291.909z"/>
		<path fill="#010202" d="M133.393,210.203l-1.512,5.003c2.471,5.313,2.473,13.521,2.473,21.645v27.529
			c0,13.644,0,27.529-11.713,27.529c-6.584,0-9.467-4.39-10.729-10.659l-2.479,8.199c4.381,3.152,9.066,4.633,13.207,4.633
			c12.195,0,29.1-12.799,29.1-43.467C151.74,228.437,142.898,215.608,133.393,210.203z"/>
		<path fill="#010202" d="M208.855,269.934h9.66v-12.919h-9.66v-48.901h-8.09l-41.656,56.508v5.312h33.809v21.009h-11.834v2.173
			h39.363v-2.173h-11.592V269.934z M192.918,256.894h-24.27l24.027-33.325h0.242V256.894z"/>
	</g>
</g>
</svg>
