<?xml version="1.0" encoding="utf-8"?>
<!-- Generator: Adobe Illustrator 16.0.0, SVG Export Plug-In . SVG Version: 6.00 Build 0)  -->
<!DOCTYPE svg PUBLIC "-//W3C//DTD SVG 1.1//EN" "http://www.w3.org/Graphics/SVG/1.1/DTD/svg11.dtd">
<svg version="1.1" id="Capa_1" xmlns="http://www.w3.org/2000/svg" xmlns:xlink="http://www.w3.org/1999/xlink" x="0px" y="0px"
	 width="208.428px" height="419.924px" viewBox="0 0 208.428 419.924" enable-background="new 0 0 208.428 419.924"
	 xml:space="preserve">
<g>
	
		<rect x="108.202" y="-8.989" transform="matrix(-0.9571 -0.2897 0.2897 -0.9571 153.5006 442.6527)" fill="#1E1E1C" width="2.627" height="437.906"/>
</g>
<path fill="none" stroke="#1D1D1B" stroke-width="1.2" stroke-miterlimit="10" d="M85.926,139.513
	c-5.725,5.493-8.584,12.626-8.584,21.372c0,8.865,4.29,17.871,12.878,27.021c-0.504,0.398-0.894,0.703-1.18,0.923
	c-0.28,0.228-0.479,0.365-0.581,0.419l-8.506,5.81c-12.459,8.588-18.689,19.36-18.689,32.322c0,10.89,3.928,20.031,11.788,27.434
	c3.281,3.003,6.864,5.385,10.723,7.168l5.868-20.023c-0.915-0.683-1.81-1.444-2.688-2.289"/>
<path fill="none" stroke="#0071CE" stroke-width="0.25" stroke-miterlimit="10" d="M85.768,139.513
	c-5.725,5.493-8.584,12.626-8.584,21.372c0,8.865,4.29,17.871,12.878,27.021"/>
<path fill="none" stroke="#1D1D1B" stroke-width="1.2" stroke-miterlimit="10" d="M86.955,239.669
	c-4.323-4.485-6.893-8.189-6.893-13.578c0-3.753,1.432-7.314,4.29-10.689c2.92-3.354,8.865-5.811,16.895-11.364l0.269-0.757
	l7.589-24.589c-0.574-0.496-0.952-0.87-1.158-1.13l-5.533-5.295c-3.427-3.329-5.362-6.896-5.797-10.677
	c-0.383-3.233,0.849-7.352,3.004-9.694c2.147-2.449,4.977-3.876,8.492-4.278c3.846-0.443,7.035,0.264,9.564,2.11
	c0.138,0.098,0.259,0.212,0.386,0.305l4.863-15.866"/>
<path fill="#1D1D1B" d="M204.789,235.729c-2.896,7.911-6.957,15.828-16.618,15.828c-7.917,0-17.209-10.064-31.111-27.448
	c2.895-3.863,9.845-17.001,14.48-17.001c1.935,0,3.479,0.972,3.479,2.512c0,1.542-0.58,3.094-0.58,5.404
	c0,6.381,4.83,11.794,12.557,11.794c8.494,0,12.943-7.15,12.943-15.066c0-8.308-6.763-15.065-14.684-15.065
	c-13.906,0-21.633,9.271-30.709,24.133l-25.305-33.799c10.617-7.535,19.12-14.489,19.12-28.391c0-8.82-3.398-15.212-9.617-18.774
	l-1.383,4.518c4.178,3.11,6.364,8.47,6.364,15.801c0,10.626-10.377,20.885-18.752,24.621c-1.062,3.473-8.004,26.142-8.004,26.142
	l21.93,32.874c-3.473,5.79-9.472,11.202-16.814,11.202c-5.428,0-11.992-0.371-17.009-5.002l-5.428,17.922
	c1.07,0.136,2.151,0.205,3.252,0.205c15.45,0,25.181-5.012,38.316-21.241c15.065,17.769,22.795,24.345,34.193,24.345
	c18.732,0,28.392-17.392,33.018-33.229L204.789,235.729z"/>
<g>
	
		<rect x="77.164" y="139.258" transform="matrix(0.888 -0.4598 0.4598 0.888 -54.5638 54.9716)" fill="#0071CE" width="16.836" height="0.511"/>
	<circle fill="#0071CE" cx="78.107" cy="143.384" r="0.923"/>
	<circle fill="#0071CE" cx="93.058" cy="135.642" r="0.923"/>
</g>
<rect x="75.76" y="162.649" transform="matrix(-0.0411 -0.9992 0.9992 -0.0411 -83.5748 247.941)" fill="#0071CE" width="2.849" height="2.847"/>
<rect x="84.158" y="138.088" transform="matrix(0.5613 -0.8276 0.8276 0.5613 -77.9163 132.0352)" fill="#0071CE" width="2.849" height="2.847"/>
</svg>
