<?xml version="1.0" encoding="utf-8"?>
<!-- Generator: Adobe Illustrator 16.0.0, SVG Export Plug-In . SVG Version: 6.00 Build 0)  -->
<!DOCTYPE svg PUBLIC "-//W3C//DTD SVG 1.1//EN" "http://www.w3.org/Graphics/SVG/1.1/DTD/svg11.dtd">
<svg version="1.1" id="Capa_1" xmlns="http://www.w3.org/2000/svg" xmlns:xlink="http://www.w3.org/1999/xlink" x="0px" y="0px"
	 width="208.428px" height="419.924px" viewBox="0 0 208.428 419.924" enable-background="new 0 0 208.428 419.924"
	 xml:space="preserve">
<g>
	
		<rect x="108.2" y="-8.989" transform="matrix(0.9571 0.2898 -0.2898 0.9571 65.5468 -22.7273)" fill="#1E1E1C" width="2.628" height="437.901"/>
	<g>
		<g>
			<path fill="none" d="M97.3,140.623c-2.578,1.564-4.691,3.73-6.34,6.496c-1.65,2.766-2.838,6.054-3.562,9.864
				c-0.725,3.809-1.086,7.918-1.086,12.328c0,4.411,0.381,8.522,1.146,12.33c0.764,3.809,1.973,7.117,3.623,9.924
				c1.648,2.808,3.783,5.011,6.398,6.615c0.186,0.114,0.381,0.214,0.57,0.32l17.578-58.134c-2.504-1.385-5.471-2.086-8.91-2.086
				C103.015,138.278,99.874,139.061,97.3,140.623z"/>
			<path fill="#010202" d="M97.479,198.179c-2.615-1.604-4.75-3.807-6.398-6.615c-1.65-2.807-2.859-6.115-3.623-9.924
				c-0.766-3.808-1.146-7.918-1.146-12.33c0-4.409,0.361-8.519,1.086-12.328c0.725-3.81,1.912-7.098,3.562-9.864
				c1.648-2.766,3.762-4.932,6.34-6.496c2.574-1.562,5.715-2.345,9.418-2.345c3.439,0,6.406,0.702,8.91,2.086l3.705-12.259
				c-3.66-1.502-7.779-2.265-12.373-2.265c-5.477,0-10.285,1.087-14.43,3.26c-4.148,2.173-7.629,5.192-10.445,9.056
				c-2.818,3.864-4.951,8.473-6.4,13.826c-1.449,5.354-2.172,11.211-2.172,17.569c0,6.441,0.703,12.316,2.111,17.629
				s3.502,9.883,6.279,13.705c2.777,3.824,6.238,6.804,10.385,8.936c0.666,0.343,1.355,0.647,2.057,0.935l3.705-12.258
				C97.86,198.393,97.665,198.292,97.479,198.179z"/>
		</g>
	</g>
	<g>
		<path fill="none" d="M112.924,291.909c11.713,0,11.713-13.885,11.713-27.529v-27.529c0-8.124-0.002-16.332-2.473-21.645
			l-19.969,66.045C103.457,287.519,106.34,291.909,112.924,291.909z"/>
		<path fill="#010202" d="M123.676,210.203l-1.512,5.003c2.471,5.313,2.473,13.521,2.473,21.645v27.529
			c0,13.644,0,27.529-11.713,27.529c-6.584,0-9.467-4.39-10.729-10.659l-2.479,8.199c4.381,3.152,9.066,4.633,13.207,4.633
			c12.195,0,29.1-12.799,29.1-43.467C142.023,228.437,133.182,215.608,123.676,210.203z"/>
	</g>
	<g>
		<path d="M179.968,292.841c-11.928,0-28.46-12.518-28.46-42.513c0-29.996,16.532-42.513,28.46-42.513s28.46,12.517,28.46,42.513
			C208.428,280.324,191.896,292.841,179.968,292.841z M168.513,263.791c0,13.345,0,26.925,11.455,26.925
			s11.455-13.581,11.455-26.925v-26.925c0-13.344,0-26.924-11.455-26.924s-11.455,13.58-11.455,26.924V263.791z"/>
	</g>
	<path d="M60.594,180.65c0,4.973-0.798,9.286-2.39,12.942c-1.593,3.655-3.807,6.678-6.642,9.07
		c-2.837,2.393-6.216,4.178-10.138,5.354c-3.924,1.175-8.255,1.765-12.992,1.765c-5.205,0-10.138-0.648-14.799-1.941
		c-4.661-1.295-9.205-3.354-13.634-6.178l5.943-10.176c3.495,1.943,7.242,3.478,11.244,4.604c4,1.127,7.865,1.689,11.595,1.689
		c6.368,0,11.187-1.457,14.449-4.37s4.894-6.972,4.894-12.177c0-4.895-1.477-8.545-4.428-10.953
		c-2.953-2.407-6.991-3.613-12.118-3.613c-3.496,0-6.468,0.467-8.915,1.398c-2.446,0.933-4.719,2.176-6.816,3.729l-13.051-5.127
		l2.797-39.851h50.105v11.653H16.547l-1.631,20.624c2.252-1.319,4.815-2.348,7.69-3.088c2.873-0.736,6.176-1.106,9.904-1.106
		c4.661,0,8.739,0.642,12.235,1.923c3.495,1.281,6.427,3.07,8.798,5.359c2.368,2.293,4.137,5.012,5.302,8.157
		C60.011,173.484,60.594,176.922,60.594,180.65z"/>
</g>
</svg>
