<?xml version="1.0" encoding="utf-8"?>
<!-- Generator: Adobe Illustrator 16.0.0, SVG Export Plug-In . SVG Version: 6.00 Build 0)  -->
<!DOCTYPE svg PUBLIC "-//W3C//DTD SVG 1.1//EN" "http://www.w3.org/Graphics/SVG/1.1/DTD/svg11.dtd">
<svg version="1.1" id="Capa_1" xmlns="http://www.w3.org/2000/svg" xmlns:xlink="http://www.w3.org/1999/xlink" x="0px" y="0px"
	 width="49.969px" height="43.891px" viewBox="0 0 49.969 43.891" enable-background="new 0 0 49.969 43.891" xml:space="preserve">
<path d="M39.198,35.285H7.943V3.989h31.255V35.285z M9.399,33.83h28.344V5.445H9.399V33.83z"/>
<path d="M26.883,19.646h-2.166v7.725h-3.211v-7.725h-1.527v-2.729h1.527v-1.766c0-1.264,0.6-3.24,3.239-3.24l2.379,0.01v2.648
	h-1.727c-0.282,0-0.681,0.143-0.681,0.744v1.604h2.446L26.883,19.646z"/>
<path d="M39.198,35.285H7.943V3.989h31.255V35.285z M9.399,33.83h28.344V5.445H9.399V33.83z"/>
<path d="M26.883,19.646h-2.166v7.725h-3.211v-7.725h-1.527v-2.729h1.527v-1.766c0-1.264,0.6-3.24,3.239-3.24l2.379,0.01v2.648
	h-1.727c-0.282,0-0.681,0.143-0.681,0.744v1.604h2.446L26.883,19.646z"/>
</svg>
