<?xml version="1.0" encoding="utf-8"?>
<!-- Generator: Adobe Illustrator 16.0.0, SVG Export Plug-In . SVG Version: 6.00 Build 0)  -->
<!DOCTYPE svg PUBLIC "-//W3C//DTD SVG 1.1//EN" "http://www.w3.org/Graphics/SVG/1.1/DTD/svg11.dtd">
<svg version="1.1" id="Capa_1" xmlns="http://www.w3.org/2000/svg" xmlns:xlink="http://www.w3.org/1999/xlink" x="0px" y="0px"
	 width="49.969px" height="43.891px" viewBox="0 0 49.969 43.891" enable-background="new 0 0 49.969 43.891" xml:space="preserve">
<path d="M40.611,37.593H9.356V6.297h31.255V37.593z M10.812,36.137h28.344V7.753H10.812V36.137z"/>
<g>
	<g>
		<g>
			<path fill="#020203" d="M30.926,18.517c-0.423-3.056-3.467-4.609-6.715-4.246c-2.568,0.287-5.129,2.365-5.234,5.334
				c-0.066,1.812,0.448,3.172,2.174,3.555c0.745-1.322-0.242-1.613-0.396-2.57c-0.633-3.909,4.515-6.584,7.21-3.852
				c1.866,1.895,0.639,7.717-2.37,7.111c-2.88-0.578,1.41-5.213-0.888-6.121c-1.868-0.738-2.86,2.262-1.975,3.754
				c-0.521,2.563-1.64,4.979-1.187,8.197c1.469-1.068,1.965-3.107,2.371-5.236c0.737,0.449,1.133,0.914,2.074,0.986
				C29.461,25.699,31.402,21.964,30.926,18.517z"/>
		</g>
	</g>
</g>
<path d="M40.611,37.593H9.356V6.297h31.255V37.593z M10.812,36.137h28.344V7.753H10.812V36.137z"/>
<g>
	<g>
		<g>
			<path fill="#020203" d="M30.926,18.517c-0.423-3.056-3.467-4.609-6.715-4.246c-2.568,0.287-5.129,2.365-5.234,5.334
				c-0.066,1.812,0.448,3.172,2.174,3.555c0.745-1.322-0.242-1.613-0.396-2.57c-0.633-3.909,4.515-6.584,7.21-3.852
				c1.866,1.895,0.639,7.717-2.37,7.111c-2.88-0.578,1.41-5.213-0.888-6.121c-1.868-0.738-2.86,2.262-1.975,3.754
				c-0.521,2.563-1.64,4.979-1.187,8.197c1.469-1.068,1.965-3.107,2.371-5.236c0.737,0.449,1.133,0.914,2.074,0.986
				C29.461,25.699,31.402,21.964,30.926,18.517z"/>
		</g>
	</g>
</g>
</svg>
