<?xml version="1.0" encoding="utf-8"?>
<!-- Generator: Adobe Illustrator 16.0.0, SVG Export Plug-In . SVG Version: 6.00 Build 0)  -->
<!DOCTYPE svg PUBLIC "-//W3C//DTD SVG 1.1//EN" "http://www.w3.org/Graphics/SVG/1.1/DTD/svg11.dtd">
<svg version="1.1" id="Capa_1" xmlns="http://www.w3.org/2000/svg" xmlns:xlink="http://www.w3.org/1999/xlink" x="0px" y="0px"
	 width="49.969px" height="43.891px" viewBox="0 0 49.969 43.891" enable-background="new 0 0 49.969 43.891" xml:space="preserve">
<g>
	<path d="M40.612,37.594H9.357V6.298h31.254V37.594z M10.813,36.139h28.343V7.754H10.813V36.139z"/>
	<g>
		<g>
			<g>
				<path d="M30.926,18.513c-0.422-3.057-3.467-4.61-6.715-4.247c-2.566,0.287-5.129,2.365-5.232,5.334
					c-0.066,1.812,0.447,3.172,2.174,3.555c0.745-1.323-0.242-1.614-0.396-2.571c-0.633-3.908,4.517-6.584,7.211-3.852
					c1.865,1.895,0.639,7.717-2.371,7.112c-2.879-0.578,1.41-5.214-0.887-6.122c-1.869-0.738-2.859,2.262-1.976,3.754
					c-0.521,2.563-1.642,4.979-1.188,8.196c1.471-1.066,1.965-3.105,2.371-5.234c0.737,0.449,1.133,0.914,2.075,0.984
					C29.461,25.696,31.403,21.96,30.926,18.513z"/>
			</g>
		</g>
	</g>
	<path d="M40.612,37.594H9.357V6.298h31.254V37.594z M10.813,36.139h28.343V7.754H10.813V36.139z"/>
	<g>
		<g>
			<g>
				<path d="M30.926,18.513c-0.422-3.057-3.467-4.61-6.715-4.247c-2.566,0.287-5.129,2.365-5.232,5.334
					c-0.066,1.812,0.447,3.172,2.174,3.555c0.745-1.323-0.242-1.614-0.396-2.571c-0.633-3.908,4.517-6.584,7.211-3.852
					c1.865,1.895,0.639,7.717-2.371,7.112c-2.879-0.578,1.41-5.214-0.887-6.122c-1.869-0.738-2.859,2.262-1.976,3.754
					c-0.521,2.563-1.642,4.979-1.188,8.196c1.471-1.066,1.965-3.105,2.371-5.234c0.737,0.449,1.133,0.914,2.075,0.984
					C29.461,25.696,31.403,21.96,30.926,18.513z"/>
			</g>
		</g>
	</g>
</g>
</svg>
