<?xml version="1.0" encoding="utf-8"?>
<!-- Generator: Adobe Illustrator 16.0.0, SVG Export Plug-In . SVG Version: 6.00 Build 0)  -->
<!DOCTYPE svg PUBLIC "-//W3C//DTD SVG 1.1//EN" "http://www.w3.org/Graphics/SVG/1.1/DTD/svg11.dtd">
<svg version="1.1" id="Capa_1" xmlns="http://www.w3.org/2000/svg" xmlns:xlink="http://www.w3.org/1999/xlink" x="0px" y="0px"
	 width="31.256px" height="31.297px" viewBox="0 0 31.256 31.297" enable-background="new 0 0 31.256 31.297" xml:space="preserve">
<path fill="#010202" d="M31.255,31.296H0V0h31.255V31.296z M1.457,29.841H29.8V1.457H1.457V29.841z"/>
<g>
	<g>
		<g>
			<path fill="#030304" d="M21.569,12.216c-0.422-3.057-3.467-4.61-6.715-4.247c-2.566,0.287-5.129,2.365-5.232,5.334
				c-0.066,1.812,0.447,3.172,2.174,3.555c0.745-1.322-0.242-1.613-0.396-2.57c-0.633-3.909,4.517-6.584,7.211-3.852
				c1.865,1.895,0.639,7.717-2.37,7.11c-2.88-0.577,1.409-5.213-0.888-6.12c-1.869-0.738-2.859,2.262-1.976,3.754
				c-0.521,2.562-1.642,4.979-1.188,8.196c1.471-1.067,1.965-3.106,2.371-5.235c0.737,0.449,1.133,0.914,2.074,0.985
				C20.104,19.398,22.045,15.663,21.569,12.216z"/>
		</g>
	</g>
</g>
<path fill="#010202" d="M31.255,31.296H0V0h31.255V31.296z M1.457,29.841H29.8V1.457H1.457V29.841z"/>
<g>
	<g>
		<g>
			<path fill="#030304" d="M21.569,12.216c-0.422-3.057-3.467-4.61-6.715-4.247c-2.566,0.287-5.129,2.365-5.232,5.334
				c-0.066,1.812,0.447,3.172,2.174,3.555c0.745-1.322-0.242-1.613-0.396-2.57c-0.633-3.909,4.517-6.584,7.211-3.852
				c1.865,1.895,0.639,7.717-2.37,7.11c-2.88-0.577,1.409-5.213-0.888-6.12c-1.869-0.738-2.859,2.262-1.976,3.754
				c-0.521,2.562-1.642,4.979-1.188,8.196c1.471-1.067,1.965-3.106,2.371-5.235c0.737,0.449,1.133,0.914,2.074,0.985
				C20.104,19.398,22.045,15.663,21.569,12.216z"/>
		</g>
	</g>
</g>
</svg>
