<?xml version="1.0" encoding="utf-8"?>
<!-- Generator: Adobe Illustrator 16.0.0, SVG Export Plug-In . SVG Version: 6.00 Build 0)  -->
<!DOCTYPE svg PUBLIC "-//W3C//DTD SVG 1.1//EN" "http://www.w3.org/Graphics/SVG/1.1/DTD/svg11.dtd">
<svg version="1.1" id="Capa_1" xmlns="http://www.w3.org/2000/svg" xmlns:xlink="http://www.w3.org/1999/xlink" x="0px" y="0px"
	 width="31.256px" height="31.297px" viewBox="0 0 31.256 31.297" enable-background="new 0 0 31.256 31.297" xml:space="preserve">
<g>
	<path fill="#010202" d="M31.256,31.296H0V0h31.255C31.255,0,31.255,31.296,31.256,31.296z M1.456,29.841h28.345V1.456H1.456V29.841
		z"/>
	<path fill="#010202" d="M18.94,15.657h-2.166v7.726h-3.211v-7.726h-1.527v-2.729h1.527v-1.767c0-1.264,0.6-3.239,3.239-3.239
		l2.379,0.01v2.647h-1.728c-0.281,0-0.681,0.144-0.681,0.744v1.604h2.446L18.94,15.657z"/>
	<path fill="#010202" d="M31.256,31.296H0V0h31.255C31.255,0,31.255,31.296,31.256,31.296z M1.456,29.841h28.345V1.456H1.456V29.841
		z"/>
	<path fill="#010202" d="M18.94,15.657h-2.166v7.726h-3.211v-7.726h-1.527v-2.729h1.527v-1.767c0-1.264,0.6-3.239,3.239-3.239
		l2.379,0.01v2.647h-1.728c-0.281,0-0.681,0.144-0.681,0.744v1.604h2.446L18.94,15.657z"/>
</g>
</svg>
