<?xml version="1.0" encoding="utf-8"?>
<!-- Generator: Adobe Illustrator 16.0.0, SVG Export Plug-In . SVG Version: 6.00 Build 0)  -->
<!DOCTYPE svg PUBLIC "-//W3C//DTD SVG 1.1//EN" "http://www.w3.org/Graphics/SVG/1.1/DTD/svg11.dtd">
<svg version="1.1" id="Capa_1" xmlns="http://www.w3.org/2000/svg" xmlns:xlink="http://www.w3.org/1999/xlink" x="0px" y="0px"
	 width="49.969px" height="43.891px" viewBox="0 0 49.969 43.891" enable-background="new 0 0 49.969 43.891" xml:space="preserve">
<rect x="10.085" y="4.717" fill="none" stroke="#000000" stroke-width="1.4556" stroke-miterlimit="10" width="29.8" height="29.841"/>
<path d="M29.725,11.912h-9.482c-1.647,0-2.986,1.338-2.986,2.99v9.483c0,1.647,1.339,2.985,2.986,2.985h9.482
	c1.649,0,2.989-1.338,2.989-2.985v-6.331v-3.152C32.714,13.25,31.374,11.912,29.725,11.912z M30.583,13.693h0.343v2.619
	l-2.611,0.008l-0.01-2.619L30.583,13.693z M22.778,18.055c0.493-0.688,1.299-1.134,2.204-1.134c0.909,0,1.713,0.447,2.209,1.134
	c0.319,0.446,0.514,0.993,0.514,1.584c0,1.506-1.223,2.725-2.723,2.725c-1.499,0-2.72-1.219-2.72-2.725
	C22.265,19.049,22.454,18.5,22.778,18.055z M31.206,24.385c0,0.817-0.663,1.479-1.481,1.479h-9.482c-0.818,0-1.48-0.662-1.48-1.479
	v-6.329h2.307c-0.197,0.489-0.311,1.022-0.311,1.584c0,2.333,1.896,4.229,4.226,4.23c2.334,0,4.229-1.899,4.229-4.232
	c0-0.558-0.113-1.095-0.312-1.584h2.309v6.331H31.206z"/>
<path d="M40.612,35.285H9.357V3.989h31.255V35.285z M10.813,33.83h28.344V5.445H10.813V33.83z"/>
<path d="M29.725,11.912h-9.482c-1.647,0-2.986,1.338-2.986,2.99v9.483c0,1.647,1.339,2.985,2.986,2.985h9.482
	c1.649,0,2.989-1.338,2.989-2.985v-6.331v-3.152C32.714,13.25,31.374,11.912,29.725,11.912z M30.583,13.693h0.343v2.619
	l-2.611,0.008l-0.01-2.619L30.583,13.693z M22.778,18.055c0.493-0.688,1.299-1.134,2.204-1.134c0.909,0,1.713,0.447,2.209,1.134
	c0.319,0.446,0.514,0.993,0.514,1.584c0,1.506-1.223,2.725-2.723,2.725c-1.499,0-2.72-1.219-2.72-2.725
	C22.265,19.049,22.454,18.5,22.778,18.055z M31.206,24.385c0,0.817-0.663,1.479-1.481,1.479h-9.482c-0.818,0-1.48-0.662-1.48-1.479
	v-6.329h2.307c-0.197,0.489-0.311,1.022-0.311,1.584c0,2.333,1.896,4.229,4.226,4.23c2.334,0,4.229-1.899,4.229-4.232
	c0-0.558-0.113-1.095-0.312-1.584h2.309v6.331H31.206z"/>
</svg>
