<?xml version="1.0" encoding="utf-8"?>
<!-- Generator: Adobe Illustrator 16.0.0, SVG Export Plug-In . SVG Version: 6.00 Build 0)  -->
<!DOCTYPE svg PUBLIC "-//W3C//DTD SVG 1.1//EN" "http://www.w3.org/Graphics/SVG/1.1/DTD/svg11.dtd">
<svg version="1.1" id="Capa_1" xmlns="http://www.w3.org/2000/svg" xmlns:xlink="http://www.w3.org/1999/xlink" x="0px" y="0px"
	 width="49.969px" height="43.891px" viewBox="0 0 49.969 43.891" enable-background="new 0 0 49.969 43.891" xml:space="preserve">
<g>
	<path d="M40.612,37.594H9.357V6.297h31.254V37.594z M10.813,36.139h28.345V7.753H10.813V36.139z"/>
	<path d="M28.297,21.954h-2.166v7.726h-3.21v-7.726h-1.527v-2.729h1.527v-1.767c0-1.264,0.6-3.239,3.24-3.239l2.379,0.01v2.647
		h-1.729c-0.281,0-0.68,0.144-0.68,0.744v1.604h2.445L28.297,21.954z"/>
	<path d="M40.612,37.594H9.357V6.297h31.254V37.594z M10.813,36.139h28.345V7.753H10.813V36.139z"/>
	<path d="M28.297,21.954h-2.166v7.726h-3.21v-7.726h-1.527v-2.729h1.527v-1.767c0-1.264,0.6-3.239,3.24-3.239l2.379,0.01v2.647
		h-1.729c-0.281,0-0.68,0.144-0.68,0.744v1.604h2.445L28.297,21.954z"/>
</g>
</svg>
