<?xml version="1.0" encoding="utf-8"?>
<!-- Generator: Adobe Illustrator 16.0.0, SVG Export Plug-In . SVG Version: 6.00 Build 0)  -->
<!DOCTYPE svg PUBLIC "-//W3C//DTD SVG 1.1//EN" "http://www.w3.org/Graphics/SVG/1.1/DTD/svg11.dtd">
<svg version="1.1" id="Capa_1" xmlns="http://www.w3.org/2000/svg" xmlns:xlink="http://www.w3.org/1999/xlink" x="0px" y="0px"
	 width="31.256px" height="31.297px" viewBox="0 0 31.256 31.297" enable-background="new 0 0 31.256 31.297" xml:space="preserve">
<path fill="#010202" d="M31.256,31.297H0V0h31.256V31.297z M1.456,29.841H29.8V1.456H1.456V29.841z"/>
<path fill="#010202" d="M20.368,7.923h-9.481c-1.647,0-2.986,1.338-2.986,2.989v9.483c0,1.647,1.339,2.985,2.986,2.985h9.481
	c1.649,0,2.989-1.338,2.989-2.985v-6.331v-3.152C23.357,9.261,22.017,7.923,20.368,7.923z M21.226,9.704h0.343v2.619l-2.611,0.008
	l-0.01-2.618L21.226,9.704z M13.42,14.066c0.493-0.688,1.3-1.134,2.204-1.134c0.909,0,1.713,0.447,2.209,1.134
	c0.319,0.446,0.515,0.993,0.515,1.584c0,1.506-1.224,2.726-2.724,2.726c-1.499,0-2.72-1.22-2.72-2.726
	C12.908,15.06,13.097,14.511,13.42,14.066z M21.849,20.396c0,0.817-0.663,1.479-1.481,1.479h-9.481c-0.818,0-1.48-0.662-1.48-1.479
	v-6.329h2.307c-0.196,0.489-0.311,1.022-0.311,1.584c0,2.333,1.896,4.229,4.226,4.23c2.334,0,4.229-1.899,4.229-4.232
	c0-0.558-0.113-1.095-0.312-1.584h2.31v6.331H21.849z"/>
</svg>
