<?xml version="1.0" encoding="utf-8"?>
<!-- Generator: Adobe Illustrator 16.0.0, SVG Export Plug-In . SVG Version: 6.00 Build 0)  -->
<!DOCTYPE svg PUBLIC "-//W3C//DTD SVG 1.1//EN" "http://www.w3.org/Graphics/SVG/1.1/DTD/svg11.dtd">
<svg version="1.1" id="Capa_1" xmlns="http://www.w3.org/2000/svg" xmlns:xlink="http://www.w3.org/1999/xlink" x="0px" y="0px"
	 width="49.969px" height="43.89px" viewBox="0 0 49.969 43.89" enable-background="new 0 0 49.969 43.89" xml:space="preserve">
<rect x="10.085" y="4.717" fill="none" stroke="#000000" stroke-width="1.4556" stroke-miterlimit="10" width="29.8" height="29.84"/>
<path d="M29.725,11.912h-9.483c-1.647,0-2.986,1.338-2.986,2.99v9.483c0,1.648,1.339,2.986,2.986,2.986h9.483
	c1.649,0,2.989-1.338,2.989-2.986v-6.331v-3.152C32.714,13.25,31.374,11.912,29.725,11.912z M30.583,13.693h0.343v2.619
	l-2.611,0.008l-0.011-2.619L30.583,13.693z M22.778,18.055c0.493-0.688,1.299-1.133,2.204-1.133c0.909,0,1.714,0.447,2.209,1.133
	c0.32,0.447,0.514,0.994,0.514,1.584c0,1.506-1.222,2.725-2.723,2.725c-1.499,0-2.72-1.219-2.72-2.725
	C22.265,19.049,22.454,18.5,22.778,18.055z M31.206,24.385c0,0.818-0.663,1.479-1.481,1.479h-9.483c-0.818,0-1.48-0.662-1.48-1.479
	v-6.329h2.307c-0.197,0.49-0.311,1.023-0.311,1.584c0,2.333,1.896,4.229,4.226,4.231c2.334,0,4.229-1.9,4.229-4.233
	c0-0.557-0.113-1.094-0.312-1.584h2.308V24.385z"/>
<rect x="10.085" y="4.717" fill="none" stroke="#000000" stroke-width="1.4556" stroke-miterlimit="10" width="29.8" height="29.84"/>
<path d="M29.725,11.912h-9.483c-1.647,0-2.986,1.338-2.986,2.99v9.483c0,1.648,1.339,2.986,2.986,2.986h9.483
	c1.649,0,2.989-1.338,2.989-2.986v-6.331v-3.152C32.714,13.25,31.374,11.912,29.725,11.912z M30.583,13.693h0.343v2.619
	l-2.611,0.008l-0.011-2.619L30.583,13.693z M22.778,18.055c0.493-0.688,1.299-1.133,2.204-1.133c0.909,0,1.714,0.447,2.209,1.133
	c0.32,0.447,0.514,0.994,0.514,1.584c0,1.506-1.222,2.725-2.723,2.725c-1.499,0-2.72-1.219-2.72-2.725
	C22.265,19.049,22.454,18.5,22.778,18.055z M31.206,24.385c0,0.818-0.663,1.479-1.481,1.479h-9.483c-0.818,0-1.48-0.662-1.48-1.479
	v-6.329h2.307c-0.197,0.49-0.311,1.023-0.311,1.584c0,2.333,1.896,4.229,4.226,4.231c2.334,0,4.229-1.9,4.229-4.233
	c0-0.557-0.113-1.094-0.312-1.584h2.308V24.385z"/>
</svg>
