<?xml version="1.0" encoding="utf-8"?>
<!-- Generator: Adobe Illustrator 16.0.0, SVG Export Plug-In . SVG Version: 6.00 Build 0)  -->
<!DOCTYPE svg PUBLIC "-//W3C//DTD SVG 1.1//EN" "http://www.w3.org/Graphics/SVG/1.1/DTD/svg11.dtd">
<svg version="1.1" id="Capa_1" xmlns="http://www.w3.org/2000/svg" xmlns:xlink="http://www.w3.org/1999/xlink" x="0px" y="0px"
	 width="31.255px" height="31.297px" viewBox="9.357 6.297 31.255 31.297" enable-background="new 9.357 6.297 31.255 31.297"
	 xml:space="preserve">
<g>
	<path d="M40.612,37.594H9.357V6.297h31.254L40.612,37.594L40.612,37.594z M10.813,36.139h28.346V7.753H10.813V36.139z"/>
	<g>
		<path id="XMLID_17_" d="M28.11,14.222h-6.248c-2.538,0-4.604,2.064-4.604,4.604v6.249c0,2.539,2.063,4.604,4.604,4.604h6.248
			c2.539,0,4.605-2.063,4.605-4.604v-6.249C32.715,16.286,30.649,14.222,28.11,14.222z M31.16,25.074
			c0,1.685-1.365,3.049-3.052,3.049H21.86c-1.685,0-3.05-1.364-3.05-3.049v-6.249c0-1.686,1.365-3.051,3.05-3.051h6.249
			c1.687,0,3.052,1.365,3.052,3.051V25.074L31.16,25.074z"/>
		<path id="XMLID_81_" d="M24.986,17.951c-2.202,0-3.998,1.794-3.998,3.998c0,2.203,1.796,3.998,3.998,3.998
			c2.204,0,3.999-1.794,3.999-3.998C28.985,19.744,27.19,17.951,24.986,17.951z M24.986,24.393c-1.35,0-2.44-1.093-2.44-2.441
			c0-1.35,1.093-2.441,2.44-2.441c1.351,0,2.442,1.093,2.442,2.441S26.336,24.393,24.986,24.393z"/>
		<circle id="XMLID_83_" cx="28.99" cy="17.983" r="0.958"/>
	</g>
</g>
</svg>
