<?xml version="1.0" encoding="UTF-8" standalone="no"?>
<!-- Generator: Adobe Illustrator 16.0.0, SVG Export Plug-In . SVG Version: 6.00 Build 0)  -->

<svg
   xmlns:dc="http://purl.org/dc/elements/1.1/"
   xmlns:cc="http://creativecommons.org/ns#"
   xmlns:rdf="http://www.w3.org/1999/02/22-rdf-syntax-ns#"
   xmlns:svg="http://www.w3.org/2000/svg"
   xmlns="http://www.w3.org/2000/svg"
   xmlns:sodipodi="http://sodipodi.sourceforge.net/DTD/sodipodi-0.dtd"
   xmlns:inkscape="http://www.inkscape.org/namespaces/inkscape"
   version="1.1"
   id="Capa_1"
   x="0px"
   y="0px"
   width="200"
   height="70"
   viewBox="0 0 199.99999 70"
   enable-background="new 0 0 595.28 841.89"
   xml:space="preserve"
   inkscape:version="0.91 r13725"
   sodipodi:docname="tu-i-jo-logo.svg"><metadata
     id="metadata4239"><rdf:RDF><cc:Work
         rdf:about=""><dc:format>image/svg+xml</dc:format><dc:type
           rdf:resource="http://purl.org/dc/dcmitype/StillImage" /><dc:title></dc:title></cc:Work></rdf:RDF></metadata><defs
     id="defs4237" /><sodipodi:namedview
     pagecolor="#ffffff"
     bordercolor="#666666"
     borderopacity="1"
     objecttolerance="10"
     gridtolerance="10"
     guidetolerance="10"
     inkscape:pageopacity="0"
     inkscape:pageshadow="2"
     inkscape:window-width="2128"
     inkscape:window-height="1226"
     id="namedview4235"
     showgrid="false"
     inkscape:zoom="1.4598106"
     inkscape:cx="78.433501"
     inkscape:cy="37.333609"
     inkscape:window-x="0"
     inkscape:window-y="0"
     inkscape:window-maximized="0"
     inkscape:current-layer="Capa_1" /><g
     id="g4211"
     transform="matrix(1.1857334,0,0,1.1857334,-16.487834,-30.228973)"><g
       id="g4213"><g
         id="g4215"><path
           d="m 86.642,59.846 c -1.271,-1.316 -2.025,-2.406 -2.025,-3.99 0,-1.102 0.421,-2.148 1.26,-3.141 0.858,-0.986 2.605,-1.707 4.966,-3.34 l 0.078,-0.223 2.23,-7.227 C 92.982,41.78 92.871,41.669 92.81,41.597 l -1.625,-1.561 c -1.008,-0.979 -1.576,-2.025 -1.704,-3.137 -0.112,-0.949 0.25,-2.16 0.883,-2.85 0.631,-0.717 1.462,-1.139 2.495,-1.256 1.131,-0.129 2.067,0.078 2.811,0.621 0.041,0.029 0.076,0.062 0.113,0.09 l 1.43,-4.662 c -1.252,-0.566 -2.665,-0.855 -4.245,-0.855 -2.704,0 -4.912,0.811 -6.628,2.426 -1.683,1.613 -2.522,3.711 -2.522,6.281 0,2.604 1.262,5.25 3.784,7.941 -0.148,0.115 -0.263,0.205 -0.347,0.268 -0.081,0.07 -0.142,0.109 -0.17,0.125 l -2.5,1.707 c -3.661,2.525 -5.492,5.689 -5.492,9.5 0,3.197 1.154,5.887 3.464,8.061 0.964,0.883 2.018,1.582 3.15,2.104 l 1.725,-5.883 C 87.163,60.318 86.9,60.094 86.642,59.846 Z"
           id="path4217"
           inkscape:connector-curvature="0"
           style="fill:#020203" /></g></g><g
       id="g4219"><path
         d="m 39.793,65.434 c -0.515,0.428 -1.211,0.773 -2.089,1.047 -0.877,0.27 -1.799,0.408 -2.767,0.408 -0.971,0 -1.847,-0.178 -2.636,-0.523 -0.784,-0.35 -1.45,-0.84 -1.995,-1.473 C 29.76,64.254 29.335,63.5 29.035,62.622 28.733,61.745 28.581,60.774 28.581,59.714 l 0,-11.255 -3.995,0 0,-5.904 3.995,0 0,-8.34 6.264,-0.031 0,8.371 5.718,0 0,5.904 -5.718,0 0,9.58 c 0,1.146 0.196,1.91 0.59,2.289 0.394,0.383 0.969,0.566 1.726,0.566 0.574,0 1.111,-0.137 1.61,-0.406 0.5,-0.273 1.143,-0.74 1.93,-1.408 l -0.908,6.354 z"
         id="path4221"
         inkscape:connector-curvature="0"
         style="fill:#020203" /><path
         d="m 59.885,66.389 0,-1.588 c -0.547,0.574 -1.297,1.064 -2.248,1.475 -0.953,0.408 -2.066,0.613 -3.337,0.613 -3.057,0 -5.288,-0.979 -6.695,-2.93 -1.407,-1.953 -2.111,-4.607 -2.111,-7.969 l 0,-13.435 6.267,0 0,12.893 c 0,1.062 0.089,1.947 0.269,2.656 0.184,0.713 0.439,1.277 0.774,1.703 0.331,0.424 0.755,0.725 1.27,0.91 0.515,0.178 1.09,0.271 1.724,0.271 1.303,0 2.31,-0.389 3.021,-1.158 0.711,-0.771 1.068,-2.188 1.068,-4.246 l 0,-13.029 6.263,0 0,23.834 -6.265,0 z"
         id="path4223"
         inkscape:connector-curvature="0"
         style="fill:#020203" /></g><g
       id="g4225"><path
         d="m 121.391,57.807 c -0.851,2.324 -2.046,4.65 -4.885,4.65 -2.324,0 -5.056,-2.957 -9.142,-8.064 0.852,-1.137 2.895,-4.998 4.256,-4.998 0.567,0 1.022,0.285 1.022,0.74 0,0.451 -0.17,0.906 -0.17,1.588 0,1.875 1.418,3.463 3.689,3.463 2.495,0 3.803,-2.1 3.803,-4.426 0,-2.441 -1.986,-4.428 -4.314,-4.428 -4.087,0 -6.357,2.727 -9.024,7.092 L 99.19,43.49 c 3.119,-2.213 5.618,-4.254 5.618,-8.342 0,-2.59 -0.999,-4.469 -2.826,-5.516 l -0.406,1.326 c 1.227,0.916 1.871,2.49 1.871,4.645 0,3.123 -3.05,6.137 -5.512,7.232 -0.312,1.025 -2.352,7.686 -2.352,7.686 l 6.443,9.658 c -1.02,1.703 -2.783,3.293 -4.939,3.293 -1.596,0 -3.524,-0.111 -4.998,-1.469 l -1.916,6.178 c 0.314,0.041 0.633,0.061 0.957,0.061 4.539,0 7.719,-2.385 11.579,-7.154 4.425,5.221 6.696,7.154 10.047,7.154 5.506,0 8.343,-5.111 9.702,-9.766 l -1.067,-0.669 z"
         id="path4227"
         inkscape:connector-curvature="0"
         style="fill:#020203" /></g><g
       id="g4229"><path
         d="m 130.025,45.1 0,-1.625 3.882,0 c 2.244,0 5.46,0 7.439,0 l 0,27.293 c 0,6.895 -4.431,11.268 -9.351,11.268 -3.171,0 -4.869,-1.586 -4.869,-3.883 0,-1.805 1.474,-3.061 3.114,-3.061 1.974,0 3.121,1.477 3.121,3.334 0,0.984 -0.44,1.588 -0.823,2.135 0.167,0.107 0.383,0.164 0.711,0.164 1.755,0 2.297,-1.861 2.297,-2.953 0,-3.447 -1.749,-5.307 -1.749,-10.996 l 0,-21.676 -3.772,0 z m 7.548,-15.844 c 2.461,0 4.432,1.967 4.432,4.43 0,2.459 -1.971,4.43 -4.432,4.43 -2.459,0 -4.431,-1.971 -4.431,-4.43 0,-2.463 1.972,-4.43 4.431,-4.43 z"
         id="path4231"
         inkscape:connector-curvature="0"
         style="fill:#020203" /><path
         d="m 158.79,42.959 c 7.221,-0.053 13.054,5.104 13.106,12.596 0.05,7.496 -5.711,12.73 -12.932,12.783 -7.219,0.047 -13.053,-5.109 -13.106,-12.604 -0.049,-7.494 5.713,-12.728 12.932,-12.775 z m -4.357,18.625 c 0.026,4.102 1.736,5.785 4.523,5.77 2.791,-0.023 4.478,-1.729 4.444,-5.83 L 163.321,49.71 c -0.029,-4.105 -1.734,-5.785 -4.527,-5.77 -2.789,0.02 -4.472,1.729 -4.442,5.83 l 0.081,11.814 z"
         id="path4233"
         inkscape:connector-curvature="0"
         style="fill:#020203" /></g></g></svg>